<?xml version="1.0" encoding="UTF-8"?>
<svg id="Layer_1" xmlns="http://www.w3.org/2000/svg" version="1.1" viewBox="0 0 497.2 630.1">
  <!-- Generator: Adobe Illustrator 29.1.0, SVG Export Plug-In . SVG Version: 2.1.0 Build 142)  -->
  <defs>
    <style>
      .st0 {
        stroke-dasharray: 2 2;
      }

      .st0, .st1, .st2, .st3 {
        fill: none;
      }

      .st0, .st1, .st2, .st4 {
        stroke: #fff;
        stroke-miterlimit: 10;
      }

      .st2 {
        stroke-dasharray: 2;
      }

      .st3 {
        isolation: isolate;
        opacity: .3;
        stroke: #000;
        stroke-linecap: round;
        stroke-linejoin: round;
      }

      .st4 {
        fill: #303030;
      }
    </style>
  </defs>
  <path id="front" class="st4" d="M444.9,146.9s47.6,115.5,51.2,116.2c0,0-67,41.8-70.3,40,0,0-11.1,5.7-25.4,3.2l-15.3-27.8,7.5,311.4s-33.2,20.7-135.2,13.9c-102-6.8-69.2,6.4-154.1-16.1l14.3-312.8-16.7,30.3-17.5-1.4s-62.4-27.5-77.4-42.4l15-27.5,38.5-93.5,9.3-12.1,27.1-23.2,55.3-30.3,29.6-10,12.1-9.3s47.1,22.5,112.3,0l13.5,9.3s33.9,10.7,38.5,14.3l42.1,23.6,35.3,27.8s8.3,12.1,10.1,16.5v.2h0l.2-.3Z"/>
  <g id="Front-lines">
    <path class="st1" d="M104.4,585.8s56.4-2.1,92.7,10c36.4,12.1,88.1,4.3,88.1,4.3,0,0,77.1-22.5,107-10.3"/>
    <path class="st1" d="M105.5,563.2h.7"/>
    <path class="st0" d="M107.4,563.1c10.3-.3,58.4-.7,90.7,10.1,36.4,12.1,88.1,4.3,88.1,4.3,0,0,75-21.9,105.7-10.8"/>
    <path class="st1" d="M105.5,569h.7"/>
    <path class="st0" d="M107.4,568.9c10.3-.3,58.4-.7,90.7,10.1,36.4,12.1,88.1,4.3,88.1,4.3,0,0,75-21.9,105.7-10.8"/>
    <path class="st2" d="M394.2,292.6s37.4-7.4,90.1-46.2"/>
    <path class="st2" d="M396.2,296.2s37.4-7.4,90.1-46.1"/>
    <path class="st2" d="M16.4,245.3s27.6,26.2,89.7,47"/>
    <path class="st2" d="M14.6,248.9s27.6,26.2,89.7,47"/>
    <path class="st1" d="M117.2,275.9s7.5-66.6-48.3-147.8"/>
    <path class="st1" d="M436.2,132.3s-46.6,48.6-51,147.4"/>
    <path class="st1" d="M191.5,63.1s68,19.3,119.1,0"/>
    <path class="st1" d="M193.7,70.6s65.5,19.1,114.5-.3"/>
    <path class="st1" d="M181.3,64.3c1.1,10.7,9,49.7,66.9,47.2,67-2.9,66-29.2,72.1-45.6"/>
    <path class="st1" d="M190.6,57.1c1.8,17.7,12.9,34,29.7,40,20.2,7.6,43,3.8,63.2-1.3,16.4-5.1,25.3-18.9,28.1-35.7"/>
  </g>
  <path class="st3" d="M250,196v-63.7h0M379.1,465.8c1.7-1.1,3.2-2,4.1-2.2.9-.6,1.5-.8,1.5-.8,0,0-1.9,1.7-2.6,2.2-1.1.8-2.4,1.7-2.8,2-2,1.1-3.9,2.2-6,3.4v-1.1c1.7-1.1,3.7-2.2,5.8-3.4h0ZM366.8,472c-1.9.8-3.2,1.4-4.1,2s-1.5.8-1.5.8c0,0,2.2,0,3-.6,1.1,0,2.6-.8,3-.8,2-.8,4.1-1.7,6.1-2.8v-1.1c-2.2,1.1-4.3,2-6.3,2.8h-.2v-.3ZM361.6,462.8c-1.7,1.1-3,2-3.9,2.5-.9.6-1.5.8-1.5.8,0,0,.4-.6.9-1.1s1.1-1.1,1.5-1.4c1.1-.8,2.2-2,2.6-2,2-1.1,3.9-2.2,6.1-3.1v1.1c-1.9.8-3.9,1.7-5.8,3.1h0ZM373.7,458c1.9,0,3.3-.6,4.3-.6h1.5-5.8c-2,0-4.3.8-6.3,1.7v1.1c2.2-.8,4.3-1.4,6.3-1.7h0v-.6ZM373.5,585.5s-.4,0-.2,0c0-1.1.7-4.8,1.3-9.2.7-4.8,1.5-10.6,2.2-16.8,1.5-12.3,3-25.4,3.3-30.2.9-9.5,1.9-19.8,2.4-24.3v2.5c0,1.7,0,3.6-.2,6.2-.2,5-.6,11.2-1.1,15.9-.4,4.8-1.9,17.9-3.5,30.2-.7,6.2-1.7,12-2.6,16.8-.7,4.8-1.3,8.1-1.7,9.2h0v-.3ZM382.8,504.4c.2-5.9.6-14.8.9-24.6.2-4.8.7-18.5.7-31.6v-28c0-1.4.2,0,.2,0,0,1.1.2,5,.4,10.1,0,5,.2,11.5.2,18.2,0,13.1-.4,26.8-.6,31.9,0,2.5-.2,5.3-.4,7.8-.2,2.8-.4,5.6-.7,8.1-.2,2.5-.4,4.8-.6,6.2s-.2,2.5-.2,2.2h0v-.3ZM142.6,581.6c0,.3,0,.6,0,0,0-1.7-.9-7.3-2-14.8-.9-7.5-2.2-16.8-3.3-26.6-2.4-19.3-4.7-39.7-5.4-47.2-1.5-15.1-2.8-31-3.2-38.3,0,0,0,1.4.4,3.6,0,2.2.7,5.9,1.1,9.5.9,7.8,1.9,17.3,2.8,24.9.7,7.5,2.8,28,5,47.2,1.1,9.8,2.2,19.3,3.2,26.6.9,7.5,1.7,12.9,1.9,14.8h-.2l-.2.3ZM128.5,454.1c-.6-4.8-1.1-10.3-1.7-17.1-.6-6.4-1.1-13.7-1.7-21.2-.6-7.5-2-29.1-3-49.8-.6-10.3-.9-20.4-1.3-28.2-.4-7.8-.6-13.7-.6-15.7s0-.6,0,0c0,2,.4,7.5.7,15.7.4,7.8.9,17.9,1.5,28.2,1.1,20.7,2.8,42.2,3.3,49.8,0,3.6.6,8.1.9,12.6,0,4.5.6,8.7.7,12.6.4,7.8.7,13.1.7,13.4h0l.2-.3ZM305.6,569.8c0,.3-.4,0-.2,0,.4-1.7,1.5-6.7,3-13.7,1.5-7,3.3-15.7,5.2-24.6,3.7-17.9,7.3-36.9,8.6-43.9,2.6-14,5.4-28.8,6.7-35.5,0,0,0,1.1-.6,3.4s-.7,5.3-1.3,8.9c-1.1,7.3-2.6,16.5-3.9,23.2-1.3,7-5,26-8.9,43.9-1.9,8.9-3.9,17.6-5.4,24.6-1.5,6.7-2.8,11.7-3.2,13.4h0v.3ZM329,451.3c1.3-8.7,3.3-21.8,5.4-36.1,1.1-7,4.1-27.1,6.7-46.4,1.3-9.5,2.4-19,3.3-26.6.9-7.5,1.5-12.9,1.9-14.5,0,0,.4,0,.2,0,0,1.7-.7,7.3-1.5,14.8-.9,7.5-1.9,17.1-3.2,26.6-2.4,19.3-5.4,39.7-6.3,46.7-.6,3.6-1.1,7.5-1.9,11.7-.7,3.9-1.5,8.1-2,11.7s-1.3,6.7-1.7,8.9c-.4,2.2-.7,3.6-.7,3.4h-.2v-.3ZM191.9,525.9c0,.3,0,.6,0,0-.4-1.4-1.9-5.3-3.7-10.6-1.7-5.6-4.1-12.3-6.1-19.6-4.3-14.5-8.2-29.9-9.5-35.8-1.5-5.9-2.6-11.7-3.7-17.1s-1.9-9.8-2.4-12.6c0,0,0,.8.7,2.8.4,2,.9,4.5,1.7,7.3,1.5,5.9,3.2,13.1,4.7,19,1.3,5.9,5.2,21.2,9.3,35.8,2,7.3,4.1,14.3,6,19.8,1.7,5.6,3,9.5,3.3,10.9h-.2ZM166.3,429.8c-.7-3.6-1.7-8.1-2.8-13.1-.6-2.5-.9-5.3-1.5-8.1s-.9-5.6-1.5-8.7c-.9-5.9-3.3-22.9-5-39.4-.9-8.1-1.5-16.2-2-22.6-.4-6.4-.7-10.9-.7-12.6s0,0,0,0c0,1.4.6,6.2.9,12.3.6,6.4,1.3,14.3,2.2,22.4,1.9,16.2,4.3,33.3,5.2,39.1.4,3.1.9,6.4,1.5,9.8s.9,7,1.5,9.8c.9,6.2,1.7,10.3,1.7,10.6h0l.4.6h.2ZM337.2,369.9h-.2c0-1.4,1.1-7.8,2-14.5.9-6.7,1.9-14,2-16.8.7-5.3,1.5-10.9,1.9-13.4v4.8c0,2.8-.4,6.2-.7,8.9-.4,2.5-1.3,9.8-2.4,16.5s-2.2,13.1-2.4,14.5c0,0-.2,0-.2,0ZM140,455.2c2-1.1,3.5-1.7,3.5-1.7,0,0-1.1,1.1-1.5,1.4-.7.6-1.5,1.1-1.7,1.1-1.1.8-2.4,1.4-3.7,2v-1.1c.9-.6,2.2-1.1,3.3-2h0v.3ZM132.8,458.8c-2.2.8-3.3,2-3.3,2h1.9c.7,0,1.7,0,1.9-.6,1.3-.6,2.6-1.1,3.7-1.7v-1.1c-1.5.6-2.8,1.1-3.9,1.7h-.2v-.3ZM121.8,452.1c-1.3,1.1-2.4,2.2-3.2,2.8s-1.1.8-1.1.8c0,0,.4-.6.7-1.1.4-.6.9-1.1,1.1-1.4.7-1.1,1.9-2,2-2.2,1.7-1.4,3.2-2.5,4.8-3.6l.4,1.1c-1.7,1.1-3.3,2.2-4.8,3.6h0ZM131.9,446c1.5-.6,2.8-1.1,3.5-1.4.9,0,1.3-.6,1.3-.6h-2.4c-1.1,0-2.2.6-2.6.6-1.9.6-3.5,1.4-5.2,2.5l.4,1.1c1.7-1.1,3.3-2,5.2-2.5h-.2v.3Z"/>
</svg>