<?xml version="1.0" encoding="UTF-8"?>
<svg id="Layer_1" xmlns="http://www.w3.org/2000/svg" version="1.1" viewBox="0 0 172 218">
  <!-- Generator: Adobe Illustrator 29.1.0, SVG Export Plug-In . SVG Version: 2.1.0 Build 142)  -->
  <defs>
    <style>
      .st0 {
        fill: #5cff71;
      }

      .st1 {
        isolation: isolate;
        opacity: .3;
      }

      .st1, .st2, .st3 {
        fill: none;
        stroke: #000;
        stroke-linecap: round;
        stroke-linejoin: round;
      }

      .st3 {
        display: none;
        stroke-dasharray: .8 .6;
        stroke-width: .5px;
      }
    </style>
  </defs>
  <g id="Layer_2">
    <g>
      <g>
        <path class="st0" d="M123.9,13.6l2.2,3.1c.2.1.5.4.7.7.5.7.7,1.3.9,1.8.5,1.1,1.2,1.1,2.1,2.1,1.4,1.6,1.9,4.1,1.2,4.7-.2.2-.5.1-1,0h0c4.8,2.6,7.8,4.3,8.9,5,6.9,4.4,10.1,11.5,11.3,14.5,1.1,2.6,1.7,4.9,2.1,6.5.6,3,1.7,7.2,2.7,11.6l1.8,10.2c.7,4.6,1.1,11.4,2.3,22.1,1.9,16,2.8,28,3.6,37,1.2,14.5,1.8,21.8,1.7,25.1-.1,4-.2,8,0,13v1.1c0,1.8,0,3.8.1,6v2.7c0,1.6.1,3.3.2,5.2,0,.4,0,.9-.2,1.4,0,.2-.1.4-.1.6s0,.3-.1.4c-.2.7-.4,1.4-.3,1.8,0,.8-.1,1.6-.5,2.3-.2.3-.3.6-.5,1h-.1c-1.9,4.2-2.1,8.2-1.7,10,.2.8.8,2.8.7,5.5,0,1.2-.2,2.1-.3,2.8-.2-.6-5.8-1.7-9.7-2-3.8-.2-7.8.2-8.3.7h-.1c-.1-.6-.2-1.6-.2-2.8,0-2.7.8-4.6,1-5.4.5-1.9.5-6-1.5-10.6h-.2s-1.5-.3-1.7-2.1c0,0-1.7-6.8-1.9-10.8-.1-1.8-.5-5.6-1-9.3l-.3-3.9h0v1h-.1l-.2,1.9c-.1,1.3-.4,2.6-.9,3.9l-.6,1.4h0v.6l-1.3,14.7H39.6l-1-10.8h0l-.4-4.5h0l-.6-1.4c-.5-1.2-.8-2.5-.9-3.9l-.2-1.9h0v1.1c-.6,4.1-1.2,8.9-1.3,11-.2,4-1.9,10.8-1.9,10.8,0,1.2-.8,1.7-1.3,2h-.5v.2c-2.2,4.6-2.2,8.8-1.6,10.6.2.9.9,2.7,1,5.4,0,1.2,0,2.2-.2,2.8h0s0-.1-.2-.1h0c0,0-.2,0-.4-.1h-.3c-1.3-.3-3.7-.5-6.2-.4h-1.1c-3.7.2-9,1.2-9.6,1.9h0c0-.5-.3-1.5-.4-2.7,0-2.7.5-4.6.7-5.5h0c.4-1.8.2-5.9-1.8-10.1h0l-.3-.4-.2-.5c-.3-.7-.7-2.9-.4-2.2h0c-.2-.8-.7-2.8-.7-4.3-.2-13.4.5-20.7.3-28,0-3.3.5-10.6,1.7-25.1.7-9,1.1-21,2.9-37,1.2-10.7,2.3-17.5,3-22.1.5-3.1.9-6.5,1.8-10.2,1-4.3,2.1-8.5,2.6-11.6.3-1.6,1-3.9,2.1-6.5,1.3-3,4.4-10.1,11.3-14.5,1.2-.7,4.1-2.4,8.8-4.9v-.2c-.2,0-.4,0-.5-.1-.7-.6-.3-3.1,1.2-4.7.9-1,1.6-1,2.1-2.1.2-.5.3-1.1.9-1.8.3-.3.6-.6.7-.7l2.2-3.1c-.2-.3-.3-.6-.3-.9s0-.8,1.3-2.4c1.6-2,1.9-2.9,2.7-2.9.3-.3.7-.7,1.2-1.1,0,0,1-.7,2.4-.9,1.7-.3,13.4-.2,29.5.2h.2c16-.4,27.6-.5,29.3-.2,1.4.2,2.4.9,2.4.9.5.4.9.8,1.2,1.1h.1c.8,0,1,.8,2.6,2.9,1.2,1.6,1.3,2.1,1.3,2.4s-.1.6-.3.9h-.4Z"/>
        <path d="M161.4,211.9h0c0,.6-5.8.5-9.8.3s-8.2-.8-8.2-1.4h0c.5-.7,4.5-1,8.3-.8,3.9.2,9.4,1.3,9.7,2h0Z"/>
        <path d="M142.5,191.8h-.1.1Z"/>
        <path d="M30.3,210.8c0,.6-4.2,1.2-8.2,1.5s-9.8.3-9.8-.3h0c.6-.7,5.9-1.8,9.6-2h1.1c2.4,0,4.8.1,6.2.4h.3c.2,0,.3,0,.4.1h0s0,0,.2.1h0v.2h.1Z"/>
        <path d="M30,210.5s0,0,.2.1c0,0,0,0-.2-.1Z"/>
        <path d="M29.5,210.3c.2,0,.3,0,.4.1,0,0-.2,0-.4-.1Z"/>
        <path d="M23,209.9c2.4,0,4.9.1,6.2.4-1.3-.3-3.7-.5-6.2-.4Z"/>
        <path d="M12.3,211.8h0q0,.1,0,0Z"/>
        <path d="M12.3,211.9h0s0,0,0,0Z"/>
      </g>
      <g>
        <path class="st2" d="M162.8,193.6h.1c.2-.3.3-.6.5-1,.4-.7.5-1.5.5-2.3s.1-1.1.3-1.8c0-.1,0-.3.1-.4,0-.2,0-.4.1-.6.1-.5.2-1,.2-1.4,0-1.8-.1-3.6-.2-5.2v-2.7c0-2.2-.1-4.2-.1-6v-14.1c0-3.3-.5-10.6-1.7-25.1-.7-9-1.7-21-3.6-37-1.2-10.7-1.6-17.5-2.3-22.1l-1.8-10.2c-1-4.3-2.1-8.5-2.7-11.6-.3-1.6-1-3.9-2.1-6.5-1.3-3-4.4-10.1-11.3-14.5-1.2-.8-4.1-2.4-8.9-4.9"/>
        <line class="st2" x1="137.4" y1="166.7" x2="137.4" y2="165.7"/>
        <path class="st2" d="M142.6,191.8h-.1"/>
        <path class="st2" d="M142.6,191.8h-.2s-1.5-.3-1.7-2.1c0,0-1.7-6.8-1.9-10.8-.1-1.8-.5-5.6-1-9.3l-.3-3.9"/>
        <polyline class="st2" points="135.7 174 135.6 174.5 134.3 189.2 86.8 189.2"/>
        <path class="st2" d="M137.3,166.7l-.2,1.9c-.1,1.3-.4,2.6-.9,3.9l-.6,1.4h0"/>
        <path class="st2" d="M43.7,26.2c-4.8,2.5-7.7,4.1-8.8,4.9-6.9,4.4-10.1,11.5-11.3,14.5-1.1,2.6-1.7,4.9-2.1,6.5-.5,3-1.7,7.2-2.6,11.6-.9,3.7-1.3,7.1-1.8,10.2-.7,4.6-1.8,11.4-3,22.1-1.9,16-2.2,28.1-2.9,37-1.2,14.5-1.8,21.8-1.7,25.1.2,7.3-.6,14.6-.3,28,0,1.4.5,3.5.7,4.2h0c-.2-.5,0,1.6.4,2.3l.2.5.3.4"/>
        <path class="st2" d="M36.3,166.7l.2,1.9c0,1.3.4,2.6.9,3.9l.6,1.4"/>
        <path class="st2" d="M38.7,178.4h-.3l1,10.8h47.5"/>
        <path class="st2" d="M30.2,210.6h0c0-.7.2-1.7.2-2.9,0-2.7-.8-4.6-1-5.4-.5-1.9-.5-6,1.5-10.6"/>
        <path class="st2" d="M30,210.5s0,0,.2.1"/>
        <path class="st2" d="M29.5,210.3c.2,0,.3,0,.4.1"/>
        <path class="st2" d="M23,209.9c2.4,0,4.8.1,6.2.4"/>
        <path class="st2" d="M10.9,193.5h0c1.9,4.2,2.2,8.3,1.8,10.1h0c-.2.9-.8,2.8-.7,5.5,0,1.2.2,2.1.4,2.8h0"/>
        <polyline class="st2" points="38 173.9 38 173.9 38.4 178.4 38.7 182"/>
        <path class="st2" d="M31.2,191.6h.5c.4-.3,1.2-.8,1.3-2,0,0,1.7-6.8,1.9-10.8,0-2.1.7-6.9,1.2-11v-1.5c0,0,0-.2,0-.2"/>
        <path class="st2" d="M161.4,211.9h0c0,.6-5.8.5-9.8.3s-8.2-.8-8.2-1.4h0c.5-.7,4.5-1,8.3-.8,3.9.2,9.4,1.3,9.7,2h0Z"/>
        <path class="st2" d="M162.7,193.6c-1.9,4.2-2.1,8.2-1.7,10,.2.8.8,2.8.7,5.5,0,1.2-.2,2.1-.3,2.8h0"/>
        <path class="st2" d="M143.4,210.6h-.1c-.1-.7-.2-1.7-.2-2.9,0-2.7.8-4.6,1-5.4.5-1.9.5-6-1.5-10.6h0"/>
        <path class="st2" d="M12.3,211.9c0,.7,5.8.5,9.8.3s8.2-.8,8.2-1.5h0c0-.1,0-.2-.2-.2h0c0,0-.2,0-.4-.1h-.3c-1.3-.3-3.7-.5-6.2-.4h-1.1c-3.7.2-9,1.2-9.6,1.9h0q0,.2,0,.1h0Z"/>
        <line class="st2" x1="86.9" y1="5.5" x2="86.7" y2="5.5"/>
        <path class="st2" d="M120.1,7.4h0c-.3-.3-.7-.7-1.2-1.1,0,0-1-.7-2.4-.9-1.7-.3-13.3-.2-29.3.2"/>
        <path class="st2" d="M53.8,7.4h0c.3-.3.7-.7,1.2-1.1,0,0,1-.7,2.4-.9,1.7-.3,13.4-.2,29.5.2h.2"/>
        <path class="st2" d="M123.8,13.7h0"/>
        <path class="st2" d="M120.1,7.4h0"/>
        <path class="st2" d="M127.4,19h-.1"/>
        <path class="st2" d="M123.9,13.6l2.2,3.1c.2.1.5.4.7.7.5.7.7,1.3.9,1.8.5,1.1,1.2,1.1,2.1,2.1,1.4,1.6,1.9,4.1,1.2,4.7-.2.2-.5.1-1,0"/>
        <path class="st2" d="M50.2,13.7h0c-.2-.4-.3-.7-.3-1s0-.8,1.3-2.4c1.6-2,1.9-2.9,2.7-2.9h0"/>
        <path class="st2" d="M46.7,19l.2.2"/>
        <path class="st2" d="M50.1,13.6h0l-2.2,3.1c-.2.2-.5.4-.7.7-.6.7-.7,1.3-.9,1.8-.5,1.1-1.2,1.1-2.1,2.1-1.4,1.6-1.9,4.1-1.2,4.7,0,.1.3.1.5.1h0"/>
        <path class="st2" d="M123.9,13.5c.2-.3.3-.6.3-.9s0-.9-1.3-2.4c-1.6-2-1.9-2.9-2.6-2.9h-.1"/>
      </g>
    </g>
  </g>
  <g id="Layer_11" data-name="Layer_1">
    <path class="st3" d="M49.8,177.5l-4.7-17.1M58.2,132.1h57M111.8,129c.8,4.9,2.4,10.2,3.4,12.9,3.1,8.6,7.2,14.5,9.3,17.3,1,1.4,4.2,5.4,4.8,6.1M61.7,129c-.8,4.9-2.4,10.2-3.4,12.9-3.1,8.6-7.2,14.5-9.3,17.3-1,1.4-4.2,5.4-4.8,6.2M32.2,190.7c-9.3-4-20.9,1-21.9,1.9M81.5,30.2h11.1M78.9,29h16.2M163.4,192.2c-.9.2-6.5,1.4-6.6,1.4h-2.2c-.2,0-13.8-3.7-14-3.7M135.1,177.1h-3.6c-2.1,0-3.5-.2-5.2-.4-1.6-.1-3.9-.3-6.3-.5-3.2-.2-5.6,0-8.2,0s-4,.2-8.6.5c-4.7.3-13.3.3-16.3.4M39,177.1h3.6c2.1,0,3.5-.2,5.2-.4,1.6-.1,4.5-.4,6.9-.5,3.2-.2,5.6,0,8.2,0s4,.2,8.6.5c4.7.3,12.2.4,15.2.4M123.6,177.5l4.7-17.1"/>
    <path class="st1" d="M87.1,28.3V5.5h0M156.5,124.8c.9-.4,1.7-.7,2.2-.8.5-.2.8-.3.8-.3,0,0-1,.6-1.4.8-.6.3-1.3.6-1.5.7-1.1.4-2.1.8-3.2,1.2v-.4c.9-.4,2-.8,3.1-1.2h0ZM149.9,127c-1,.3-1.7.5-2.2.7s-.8.3-.8.3c0,0,1.2,0,1.6-.2.6,0,1.4-.3,1.6-.3,1.1-.3,2.2-.6,3.3-1v-.4c-1.2.4-2.3.7-3.4,1h-.1ZM147.1,123.7c-.9.4-1.6.7-2.1.9-.5.2-.8.3-.8.3,0,0,.2-.2.5-.4s.6-.4.8-.5c.6-.3,1.2-.7,1.4-.7,1.1-.4,2.1-.8,3.3-1.1v.4c-1,.3-2.1.6-3.1,1.1h0ZM153.6,122c1,0,1.8-.2,2.3-.2h.8-3.1c-1.1,0-2.3.3-3.4.6v.4c1.2-.3,2.3-.5,3.4-.6h0v-.2ZM153.5,167.6s-.2,0-.1,0c0-.4.4-1.7.7-3.3.4-1.7.8-3.8,1.2-6,.8-4.4,1.6-9.1,1.8-10.8.5-3.4,1-7.1,1.3-8.7v.9c0,.6,0,1.3-.1,2.2-.1,1.8-.3,4-.6,5.7-.2,1.7-1,6.4-1.9,10.8-.4,2.2-.9,4.3-1.4,6-.4,1.7-.7,2.9-.9,3.3h0ZM158.5,138.6c.1-2.1.3-5.3.5-8.8.1-1.7.4-6.6.4-11.3v-10c0-.5.1,0,.1,0,0,.4.1,1.8.2,3.6,0,1.8.1,4.1.1,6.5,0,4.7-.2,9.6-.3,11.4,0,.9-.1,1.9-.2,2.8-.1,1-.2,2-.4,2.9-.1.9-.2,1.7-.3,2.2s-.1.9-.1.8h0ZM29.4,166.2c0,.1,0,.2,0,0,0-.6-.5-2.6-1.1-5.3-.5-2.7-1.2-6-1.8-9.5-1.3-6.9-2.5-14.2-2.9-16.9-.8-5.4-1.5-11.1-1.7-13.7,0,0,0,.5.2,1.3,0,.8.4,2.1.6,3.4.5,2.8,1,6.2,1.5,8.9.4,2.7,1.5,10,2.7,16.9.6,3.5,1.2,6.9,1.7,9.5.5,2.7.9,4.6,1,5.3h-.1ZM21.8,120.6c-.3-1.7-.6-3.7-.9-6.1-.3-2.3-.6-4.9-.9-7.6-.3-2.7-1.1-10.4-1.6-17.8-.3-3.7-.5-7.3-.7-10.1-.2-2.8-.3-4.9-.3-5.6s0-.2,0,0c0,.7.2,2.7.4,5.6.2,2.8.5,6.4.8,10.1.6,7.4,1.5,15.1,1.8,17.8,0,1.3.3,2.9.5,4.5,0,1.6.3,3.1.4,4.5.2,2.8.4,4.7.4,4.8h0ZM117,162c0,.1-.2,0-.1,0,.2-.6.8-2.4,1.6-4.9s1.8-5.6,2.8-8.8c2-6.4,3.9-13.2,4.6-15.7,1.4-5,2.9-10.3,3.6-12.7,0,0,0,.4-.3,1.2s-.4,1.9-.7,3.2c-.6,2.6-1.4,5.9-2.1,8.3-.7,2.5-2.7,9.3-4.8,15.7-1,3.2-2.1,6.3-2.9,8.8-.8,2.4-1.5,4.2-1.7,4.8h0ZM129.6,119.6c.7-3.1,1.8-7.8,2.9-12.9.6-2.5,2.2-9.7,3.6-16.6.7-3.4,1.3-6.8,1.8-9.5s.8-4.6,1-5.2c0,0,.2,0,.1,0,0,.6-.4,2.6-.8,5.3-.5,2.7-1,6.1-1.7,9.5-1.3,6.9-2.9,14.2-3.4,16.7-.3,1.3-.6,2.7-1,4.2-.4,1.4-.8,2.9-1.1,4.2s-.7,2.4-.9,3.2c-.2.8-.4,1.3-.4,1.2h-.1ZM55.9,146.3c0,.1,0,.2,0,0-.2-.5-1-1.9-2-3.8-.9-2-2.2-4.4-3.3-7-2.3-5.2-4.4-10.7-5.1-12.8-.8-2.1-1.4-4.2-2-6.1s-1-3.5-1.3-4.5c0,0,0,.3.4,1,.2.7.5,1.6.9,2.6.8,2.1,1.7,4.7,2.5,6.8.7,2.1,2.8,7.6,5,12.8,1.1,2.6,2.2,5.1,3.2,7.1.9,2,1.6,3.4,1.8,3.9h0ZM42.1,111.9c-.4-1.3-.9-2.9-1.5-4.7-.3-.9-.5-1.9-.8-2.9s-.5-2-.8-3.1c-.5-2.1-1.8-8.2-2.7-14.1-.5-2.9-.8-5.8-1.1-8.1-.2-2.3-.4-3.9-.4-4.5s0,0,0,0c0,.5.3,2.2.5,4.4.3,2.3.7,5.1,1.2,8,1,5.8,2.3,11.9,2.8,14,.2,1.1.5,2.3.8,3.5s.5,2.5.8,3.5c.5,2.2.9,3.7.9,3.8h0l.2.2ZM134,90.5h-.1c0-.5.6-2.8,1.1-5.2.5-2.4,1-5,1.1-6,.4-1.9.8-3.9,1-4.8v1.7c0,1-.2,2.2-.4,3.2-.2.9-.7,3.5-1.3,5.9s-1.2,4.7-1.3,5.2h-.1ZM28,121c1.1-.4,1.9-.6,1.9-.6,0,0-.6.4-.8.5-.4.2-.8.4-.9.4-.6.3-1.3.5-2,.7v-.4c.5-.2,1.2-.4,1.8-.7h0ZM24.1,122.3c-1.2.3-1.8.7-1.8.7h1c.4,0,.9,0,1-.2.7-.2,1.4-.4,2-.6v-.4c-.8.2-1.5.4-2.1.6h-.1ZM18.2,119.9c-.7.4-1.3.8-1.7,1s-.6.3-.6.3c0,0,.2-.2.4-.4.2-.2.5-.4.6-.5.4-.4,1-.7,1.1-.8.9-.5,1.7-.9,2.6-1.3l.2.4c-.9.4-1.8.8-2.6,1.3h0ZM23.6,117.7c.8-.2,1.5-.4,1.9-.5.5,0,.7-.2.7-.2h-1.3c-.6,0-1.2.2-1.4.2-1,.2-1.9.5-2.8.9l.2.4c.9-.4,1.8-.7,2.8-.9h-.1Z"/>
    <path class="st2" d="M34.7,56.8v-.7c.3-.9,2.4-11.3,9.8-16.4.8-.5,1.5-1,2.1-1.6.2-.2.5-.4.7-.6.7-.6,1.4-1.2,2.1-1.8,0,0,.3-.2.4-.3.3-.3.7-.6,1-.9.6-.5,1.2-1,1.8-1.5.2,0,.3-.2.5-.4.2,0,.3-.2.5-.4.2,0,.4-.2.5-.4.2-.1.4-.3.6-.4s.5-.3.7-.5M138.9,56.8c-.4-.9-2.5-12-9.8-17.1-3.7-2.6-5.7-5.2-10.3-8.1M74.8,81.2v6.5c0,.5,0,.8.2,1,0,0,.3.4.6.4s.6-.3.7-.6v-2.7l.2-4.5h-1.7,0ZM98.5,81.2v6.5c0,.5,0,.8-.2,1,0,0-.3.4-.6.4s-.6-.3-.7-.6v-2.7l-.2-4.5h1.7,0ZM96.9,85.7v2.7c.2.4.5.6.8.6s.6-.3.6-.4c.2-.2.2-.5.2-1v-6.5h-1.7v4.5h0ZM87.3,42.6h-.3,0c0,0,0,0,0,0h.1ZM87.5,42.4l-.2.2h0c0,0,.2,0,.3-.2ZM87,42.5h.5c.2,0,.5-.2.7-.3h0l-1.2.3ZM162.8,193.6h.1c.2-.3.3-.6.5-1,.4-.7.5-1.5.5-2.3s.1-1.1.3-1.8c0-.1,0-.3.1-.4,0-.2,0-.4.1-.6.1-.5.2-1,.2-1.4,0-1.8-.1-3.6-.2-5.2v-2.7c0-2.2-.1-4.2-.1-6v-14.1c.1-3.3-.5-10.6-1.7-25.1-.7-8.9-1.7-21-3.6-37-1.2-10.7-1.6-17.5-2.3-22.1l-1.8-10.2c-1-4.3-2.1-8.5-2.6-11.6-.4-1.6-1-3.9-2.1-6.5-1.3-3-4.4-10.1-11.3-14.5-1.2-.8-4.2-2.5-9.2-5,0,0-.1,0-.2-.1M137.4,166.7l.5-5.6c0-.6.1-1.3-.1-1.9-.9-1.8-1.2-4.8-1.2-4.8v-.2h.5c.4-3.5.8-7,1.2-10.5.5-5,.8-9.8,1-14.4.2-1.9.2-4.6-.7-7.6-.4-1.5-.9-2.4-1.3-3.3,0,0,0-.2-.1-.3v-.3c-.1,0-.1,0-.1,0,0-2.5,1.4-30.5,1.5-43.4v-3.2c0-4.7.2-9.8.4-14.1M162.8,193.6c-.9.2-5.6,1.2-5.7,1.2h-2.2c-.2,0-12.4-3.1-12.6-3.1,0,0-1.5-.3-1.7-2.1,0,0-1.7-6.8-1.9-10.8M134.8,178.2c-6.5,0-12.2-1-18.6-1M126,177.9l3-11.6,1-3.8c-.6-.8-1.5-1.9-2.6-3.4-.3-.4-5-5-9.7-18.1-1-2.8-2.2-6.9-3.1-11.9h-3.6c-16.3-.9-32.5-.4-48.8,0h-3.6c-.9,5.1-2.1,9.1-3.1,12-3.2,9-7.5,15.1-9.7,18.1-1,1.5-2,2.6-2.6,3.4l1,3.8,3,11.6,5.3-.5,4.9-.2h4.4l17.4.9h16.3l16.2-.9h7l7,.6h.3ZM142.6,191.8h-.3s-1.5-.3-1.7-2.1c0,0-1.7-6.8-1.9-10.8-.1-1.8-.6-5.6-1-9.3l-.3-4M135.7,173.9v.6l-1.3,14.7h-47.5M137.3,166.7l-.2,1.9c-.1,1.3-.4,2.6-.9,3.9l-.6,1.4M44,26c-5,2.5-8,4.3-9.1,5-6.9,4.4-10.1,11.5-11.3,14.5-1.1,2.6-1.7,5-2.1,6.5-.5,3-1.7,7.2-2.6,11.6-.9,3.7-1.3,7.1-1.8,10.2-.7,4.6-1.8,11.4-3,22.1-1.9,16-2.2,28.1-2.9,37-1.2,14.5-1.8,21.8-1.7,25.1.2,7.3-.6,14.6-.3,28,0,1.4.5,3.5.7,4.2h0c-.2-.5,0,1.7.4,2.3,0,.2.2.3.2.5l.3.4M34.7,56.2c0,13.3,1.7,53.1,1.7,54.3M36.3,166.7l.2,1.9c0,1.3.4,2.6.9,3.9l.6,1.4M57.4,177.3c-6.5,0-12.6,1.2-19.1,1.2l1,10.8h47.5M12.6,203.6c-.2.9-.8,2.8-.7,5.5,0,1.2.2,2.2.4,2.8,0-.6,5.7-1.8,9.7-2,3.7-.2,7.8.2,8.3.7h0c0-.7.2-1.7.2-2.9,0-2.7-.8-4.6-1-5.4-.5-1.9-.5-6.1,1.6-10.8-8.9-3.2-19.1,1.4-20.3,1.9,1.9,4.2,2.2,8.3,1.8,10.1h0ZM38,173.9l.7,8M31.1,191.6h.6c.5-.3,1.2-.8,1.3-2,0,0,1.7-6.8,1.9-10.8,0-2.1.7-6.9,1.2-11v-1.6c0,0,0-.6,0-.6l-.5-5.4v-.7l.6-1.2.3-.8.3-1.2.2-1.1v-.7l.2-.4h-.6c0-.1-.4-3.1-.4-3.1l-.4-3.8-.8-8.2-.3-4.7-.2-4.6v-2.2c0,0,0-1.6,0-1.6v-.8l.2-.9.2-.9.2-.9.6-1.8.7-1.6.5-1,.2-.3v-.9l-.2-3.3v-3M161.4,211.9h0c0,.6-5.8.5-9.8.3s-8.2-.8-8.2-1.4h0c.5-.7,4.5-1,8.3-.8,4,.2,9.7,1.4,9.7,2h0ZM162.7,193.6c-1.9,4.2-2.1,8.2-1.7,10,.2.9.8,2.8.7,5.5,0,1.2-.2,2.2-.4,2.8M143.4,210.6h-.1c-.1-.7-.2-1.7-.2-2.9,0-2.7.8-4.6,1-5.4.5-1.9.5-6-1.5-10.6M12.3,211.9h0c0,.6,5.8.5,9.8.3s8.2-.8,8.2-1.4h0c-.5-.7-4.5-1-8.3-.8-4,.2-9.7,1.4-9.7,2h0ZM81.5,30.7h11.1M78.1,28.3h17.7M120.1,7.3c-.3-.3-.7-.7-1.2-1.1,0,0-1-.7-2.4-.9-1.7-.3-13.3-.2-29.3.2h-.4M53.8,7.3h0c.3-.3.7-.7,1.2-1.1,0,0,1-.7,2.4-.9,1.7-.3,13.4-.2,29.5.2h.2M84.1,40l3.4,2.4,2.6-2.2,12.7-10.8c2.5-1.8,4.6-3.3,6-4.3,4.5-3.1,8.4-7,13.1-9.8.5-.3,1.5-.9,2-1.8M120.1,7.4c-.2,0-.4.3-1.1.9-.8.7-1.4,1.4-1.9,1.9-.1.1-.3.3-.4.5h0c-1.4,1.6-3.5,3.7-6.2,6-1.5,1.3-1.6,1.3-6,4.9-1.1.9-2,1.6-2.8,2.2M101.7,23.8c-3.4,2.8-4.6,3.8-7.1,5.5-1.9,1.4-4.6,6.6-5.4,8l-1.7,5.1M127.4,19c-1.3,1-2.8,2.1-4.2,3.1-5,3.4-9.7,5.9-14.1,7.8M123.9,13.6l2.2,3.1c.2.1.5.4.7.7.6.7.7,1.3.9,1.8.5,1.1,1.2,1.1,2.1,2.1,1.4,1.6,1.9,4.1,1.2,4.7-.3.2-.6,0-1.3,0h-.7c-.9.2-1.5.6-1.9.9-1.4.9-2.9,1.5-4.4,2.2-2.5,1.3-9.5,4.6-14.5,6.6-4,1.6-10,3.8-18.1,6-.6.2-1.2.3-1.8.5-.2,0-.5,0-.7.2h-.3M84.1,40l-12.8-10.6c-2.5-1.8-4.6-3.3-6-4.3-4.5-3.1-8.4-7-13.1-9.8-.5-.3-1.5-.9-2-1.8-.2-.3-.3-.6-.3-.9s0-.9,1.3-2.4c1.6-2,1.9-2.9,2.7-2.9s.4.2,1.2,1c.8.7,1.4,1.4,1.9,1.9.2.2.3.4.5.5,1.4,1.5,3.5,3.6,6.1,5.9,1.5,1.3,1.6,1.3,6,4.9,1.2.9,2.2,1.7,3,2.4,3.2,2.6,4.4,3.6,6.8,5.4,1.7,1.2,6,6.9,6.5,8.2.2,0,1.5,4.8,1.7,4.9M46.7,19c1.3,1,2.8,2.1,4.2,3.1,5,3.4,9.7,5.9,14.1,7.8M50.1,13.6l-2.2,3.1c-.2.1-.5.4-.7.7-.5.7-.7,1.3-.9,1.8-.5,1.1-1.2,1.1-2.1,2.1-1.4,1.6-1.9,4.1-1.2,4.7.2.2.5.1.8,0h1c.9.2,1.5.6,1.9.9,1.4.9,2.9,1.5,4.4,2.2.9.5,2.4,1.2,4.2,2,3.1,1.5,7.2,3.3,10.4,4.6,4,1.6,9.9,3.8,17.7,5.9,1.1.3,2.3.6,3.4.9h.3M98.5,81.2l-.2-7.2c0-1-.2-2.4-.5-4.1-.3-1.8-.6-3.2-1-5-.6-2.4-.7-2.7-1.6-6.2-.8-3.2-1-4-1.2-4.8-.4-2.2-.8-3.9-.8-6.3,0-3.4.6-5.8.7-6.3,0-.3.2-.5.2-.8.2-.6.4-1,.5-1.4h-1.7c0,.3-.3.7-.4,1.2,0,.3-.2.7-.3,1,0,.5-.8,2.9-.7,6.3,0,2.4.4,4.1.8,6.3.2.8.3,1.5,1.2,4.8.9,3.5,1,3.8,1.6,6.2.4,1.8.8,3.1,1,5,.3,1.7.4,3.1.5,4.1l.2,7.2M94.1,40.7c.5-.2.9-.8.9-1.4s-.7-1.5-1.5-1.5-1.5.7-1.5,1.5.2.8.5,1.1c.3.2.6.4,1,.4s.4,0,.6,0h0ZM79.2,40.7c0,.2.2.5.2.8,0,.5.8,2.9.7,6.3,0,2.4-.4,4.1-.8,6.3-.2.8-.3,1.5-1.2,4.8-.9,3.5-1.1,3.8-1.6,6.2-.4,1.8-.8,3.1-1,5-.3,1.7-.4,3.1-.5,4.1l-.2,7.2h1.7l.2-7.2c0-1,.2-2.4.5-4.1.3-1.8.6-3.2,1-5,.6-2.4.7-2.7,1.6-6.2.8-3.2,1-4,1.2-4.8.4-2.2.8-3.9.8-6.3,0-3.4-.6-5.8-.7-6.3,0-.4-.2-.7-.3-1-.2-.5-.3-.8-.4-1.2h-1.7c.2.4.3.8.5,1.4h0ZM79.2,40.7c-.5-.2-.9-.8-.9-1.4s.7-1.5,1.5-1.5,1.5.7,1.5,1.5-.2.8-.5,1.1-.6.4-1,.4-.4,0-.6,0ZM123.9,13.5c.2-.3.3-.6.3-.9s0-.9-1.3-2.4c-1.6-2-1.9-2.9-2.7-2.9h-.1"/>
  </g>
</svg>