<?xml version="1.0" encoding="UTF-8"?>
<svg xmlns="http://www.w3.org/2000/svg" version="1.1" viewBox="0 0 218 218">
  <!-- Generator: Adobe Illustrator 29.1.0, SVG Export Plug-In . SVG Version: 2.1.0 Build 142)  -->
  <defs>
    <style>
      .st0 {
        fill: #5cff71;
      }

      .st1 {
        display: none;
        stroke-dasharray: .8 .6;
        stroke-width: .5px;
      }

      .st1, .st2, .st3 {
        fill: none;
        stroke: #000;
        stroke-linecap: round;
        stroke-linejoin: round;
      }

      .st2 {
        isolation: isolate;
        opacity: .3;
      }
    </style>
  </defs>
  <g id="Layer_2">
    <g>
      <g>
        <path class="st0" d="M147,13.6l2.2,3.1c.2.1.5.4.7.7.5.7.7,1.3.9,1.8.5,1.1,1.2,1.1,2.1,2.1,1.4,1.6,1.9,4.1,1.2,4.7-.2.2-.5.1-1,0h0c4.8,2.6,7.8,4.3,8.9,5,6.9,4.4,10.1,11.5,11.3,14.5,1.1,2.6,1.7,4.9,2.1,6.5.6,3,1.7,7.2,2.7,11.6l1.8,10.2c.7,4.6,1.1,11.4,2.3,22.1,1.9,16,2.8,28,3.6,37,1.2,14.5,1.8,21.8,1.7,25.1-.1,4-.2,8,0,13,0,.4,0,.7,0,1.1,0,1.8,0,3.8.1,6,0,.4,0,.9,0,1.3s0,.9,0,1.4c0,1.6.1,3.3.2,5.2,0,.4,0,.9-.2,1.4,0,.2-.1.4-.1.6,0,.1,0,.3-.1.4-.2.7-.4,1.4-.3,1.8,0,.8-.1,1.6-.5,2.3-.2.3-.3.6-.5,1,0,0,0,0-.1,0h0c-1.9,4.2-2.1,8.2-1.7,10,.2.8.8,2.8.7,5.5,0,1.2-.2,2.1-.3,2.8-.2-.6-5.8-1.7-9.7-2-3.8-.2-7.8.2-8.3.7h0s-.1,0-.1,0c-.1-.6-.2-1.6-.2-2.8,0-2.7.8-4.6,1-5.4.5-1.9.5-6-1.5-10.6,0,0,0,0,0,0,0,0,0,0-.1,0,0,0-.1,0-.1,0,0,0-1.5-.3-1.7-2.1,0,0-1.7-6.8-1.9-10.8-.1-1.8-.5-5.6-1-9.3l-.3-3.9h0v1c0,0-.1,0-.1,0l-.2,1.9c-.1,1.3-.4,2.6-.9,3.9l-.6,1.4h0v.6s-1.3,14.7-1.3,14.7h-47.5s-47.5,0-47.5,0l-1-10.8h0l-.4-4.5h0s-.6-1.4-.6-1.4c-.5-1.2-.8-2.5-.9-3.9l-.2-1.9h0v1.1c-.6,4.1-1.2,8.9-1.3,11-.2,4-1.9,10.8-1.9,10.8-.1,1.2-.8,1.7-1.3,2h-.5s-.1.2-.1.2c-2.1,4.6-2.1,8.8-1.5,10.6.2.9.9,2.7,1,5.4,0,1.2,0,2.2-.2,2.8h-.1s0,0,0,0h0c0,0,0-.1-.2-.1,0,0,0,0-.1,0-.1,0-.2,0-.4-.1,0,0-.2,0-.3,0-1.3-.3-3.7-.5-6.2-.4-.4,0-.7,0-1.1,0-3.7.2-9,1.2-9.6,1.9,0,0,0,0,0,.1-.1-.6-.3-1.6-.4-2.8,0-2.7.5-4.6.7-5.5h0c.4-1.8.2-5.9-1.8-10.1h0s-.3-.4-.3-.4l-.2-.5c-.3-.7-.7-2.9-.4-2.2,0,0,0,0,0-.1-.2-.7-.7-2.7-.7-4.2-.2-13.4.5-20.7.3-28-.1-3.3.5-10.6,1.7-25.1.7-9,1.1-21,2.9-37,1.2-10.7,2.3-17.5,3-22.1.5-3.1.9-6.5,1.8-10.2,1-4.3,2.1-8.5,2.6-11.6.3-1.6,1-3.9,2.1-6.5,1.3-3,4.4-10.1,11.3-14.5,1.2-.7,4.1-2.4,8.8-4.9v-.2c-.2,0-.4,0-.5-.1-.7-.6-.3-3.1,1.2-4.7.9-1,1.6-1,2.1-2.1.2-.5.3-1.1.9-1.8.3-.3.6-.6.7-.7l2.2-3.1c-.2-.3-.3-.6-.3-.9,0-.3,0-.8,1.3-2.4,1.6-2,1.9-2.9,2.7-2.9.3-.3.7-.7,1.2-1.1,0,0,1-.7,2.4-.9,1.7-.3,13.4-.2,29.5.2h.2c16-.4,27.6-.5,29.3-.2,1.4.2,2.4.9,2.4.9.5.4.9.8,1.2,1.1h0s0,0,.1,0c.8,0,1,.8,2.6,2.9,1.2,1.6,1.3,2.1,1.3,2.4,0,.3-.1.6-.3.9h0s0,0,0,0Z"/>
        <path d="M184.5,211.9s0,0,0,0h0c0,.6-5.8.5-9.8.3s-8.2-.8-8.2-1.4c0,0,0,0,0-.1.5-.6,4.5-.9,8.3-.7,3.9.2,9.4,1.3,9.7,2Z"/>
        <path d="M165.6,191.8s0,0,0,0c0,0-.1,0-.1,0,0,0,0,0,.1,0Z"/>
        <path d="M53.4,210.8c0,.6-4.2,1.2-8.2,1.5s-9.8.3-9.8-.3c0,0,0,0,0-.1.6-.6,5.9-1.7,9.6-1.9.4,0,.7,0,1.1,0,2.4,0,4.8.1,6.2.4.1,0,.2,0,.3,0,.2,0,.3,0,.4.1,0,0,0,0,.1,0,0,0,.1,0,.2.1h0c0,0,0,.1,0,.2Z"/>
        <path d="M53.1,210.5c0,0,.1,0,.2.1,0,0-.1,0-.2-.1Z"/>
        <path d="M52.6,210.3c.2,0,.3,0,.4.1-.1,0-.2,0-.4-.1Z"/>
        <path d="M46.1,209.9c2.4,0,4.9.1,6.2.4-1.3-.3-3.7-.5-6.2-.4Z"/>
        <path d="M35.4,211.8s0,0,0,.1h0s0,0,0-.1Z"/>
        <path d="M35.4,211.9h0s0,0,0,0t0,0Z"/>
      </g>
      <g>
        <path class="st3" d="M185.9,193.6c0,0,.1,0,.1,0,.2-.3.3-.6.5-1,.4-.7.5-1.5.5-2.3,0-.4.1-1.1.3-1.8,0-.1,0-.3.1-.4,0-.2,0-.4.1-.6.1-.5.2-1,.2-1.4,0-1.8-.1-3.6-.2-5.2,0-.5,0-.9,0-1.4s0-.9,0-1.3c0-2.2-.1-4.2-.1-6,0-.4,0-.7,0-1.1,0-5,0-9,0-13,0-3.3-.5-10.6-1.7-25.1-.7-9-1.7-21-3.6-37-1.2-10.7-1.6-17.5-2.3-22.1l-1.8-10.2c-1-4.3-2.1-8.5-2.7-11.6-.3-1.6-1-3.9-2.1-6.5-1.3-3-4.4-10.1-11.3-14.5-1.2-.8-4.1-2.4-8.9-4.9"/>
        <line class="st3" x1="160.5" y1="166.7" x2="160.5" y2="165.7"/>
        <path class="st3" d="M165.7,191.8s0,0,0,0c0,0-.1,0-.1,0"/>
        <path class="st3" d="M165.7,191.8s0,0,0,0c0,0,0,0-.1,0,0,0-.1,0-.1,0,0,0-1.5-.3-1.7-2.1,0,0-1.7-6.8-1.9-10.8-.1-1.8-.5-5.6-1-9.3l-.3-3.9"/>
        <polyline class="st3" points="158.8 174 158.7 174.5 157.4 189.2 109.9 189.2"/>
        <path class="st3" d="M160.4,166.7l-.2,1.9c-.1,1.3-.4,2.6-.9,3.9l-.6,1.4h0"/>
        <path class="st3" d="M66.8,26.2c-4.8,2.5-7.7,4.1-8.8,4.9-6.9,4.4-10.1,11.5-11.3,14.5-1.1,2.6-1.7,4.9-2.1,6.5-.5,3-1.7,7.2-2.6,11.6-.9,3.7-1.3,7.1-1.8,10.2-.7,4.6-1.8,11.4-3,22.1-1.9,16-2.2,28.1-2.9,37-1.2,14.5-1.8,21.8-1.7,25.1.2,7.3-.6,14.6-.3,28,0,1.4.5,3.5.7,4.2,0,0,0,0,0,.1-.2-.6.1,1.5.4,2.2l.2.5.3.4"/>
        <path class="st3" d="M59.4,166.7l.2,1.9c.1,1.3.4,2.6.9,3.9l.6,1.4"/>
        <path class="st3" d="M61.8,178.4h-.3l1,10.8h47.5s0,0,0,0"/>
        <path class="st3" d="M53.3,210.6s0,0,0,0h.1c0-.7.2-1.7.2-2.9,0-2.7-.8-4.6-1-5.4-.5-1.9-.5-6,1.5-10.6"/>
        <path class="st3" d="M53.1,210.5c0,0,.1,0,.2.1"/>
        <path class="st3" d="M52.6,210.3c.2,0,.3,0,.4.1"/>
        <path class="st3" d="M46.1,209.9c2.4,0,4.8.1,6.2.4"/>
        <path class="st3" d="M34,193.5s0,0,0,0h0c1.9,4.2,2.2,8.3,1.8,10.1h0c-.2.9-.8,2.8-.7,5.5,0,1.2.2,2.1.4,2.8h0s0,0,0-.1"/>
        <polyline class="st3" points="61.1 173.9 61.1 173.9 61.5 178.4 61.8 182"/>
        <path class="st3" d="M54.3,191.6h.5c.4-.3,1.2-.8,1.3-2,0,0,1.7-6.8,1.9-10.8.1-2.1.7-6.9,1.2-11v-1.1c0,0,.1-.4.1-.4v-.2"/>
        <path class="st3" d="M184.5,211.9s0,0,0,0h0c0,.6-5.8.5-9.8.3s-8.2-.8-8.2-1.4c0,0,0,0,0-.1.5-.6,4.5-.9,8.3-.7,3.9.2,9.4,1.3,9.7,2Z"/>
        <path class="st3" d="M185.8,193.6c-1.9,4.2-2.1,8.2-1.7,10,.2.8.8,2.8.7,5.5,0,1.2-.2,2.1-.3,2.8,0,0,0,0,0,0"/>
        <path class="st3" d="M166.5,210.6h-.1c-.1-.7-.2-1.7-.2-2.9,0-2.7.8-4.6,1-5.4.5-1.9.5-6-1.5-10.6,0,0,0,0,0,0h0"/>
        <path class="st3" d="M35.4,211.9c0,.7,5.8.5,9.8.3s8.2-.8,8.2-1.5c0,0,0,0,0-.1h0c0,0,0-.1-.2-.1,0,0,0,0-.1,0-.1,0-.2,0-.4-.1,0,0-.2,0-.3,0-1.3-.3-3.7-.5-6.2-.4-.4,0-.7,0-1.1,0-3.7.2-9,1.2-9.6,1.9,0,0,0,0,0,.1t0,0h0Z"/>
        <line class="st3" x1="110" y1="5.5" x2="109.8" y2="5.5"/>
        <path class="st3" d="M143.2,7.4s0,0,0,0c-.3-.3-.7-.7-1.2-1.1,0,0-1-.7-2.4-.9-1.7-.3-13.3-.2-29.3.2"/>
        <path class="st3" d="M76.9,7.4s0,0,0,0c.3-.3.7-.7,1.2-1.1,0,0,1-.7,2.4-.9,1.7-.3,13.4-.2,29.5.2h.2"/>
        <path class="st3" d="M146.9,13.7s0,0,0,0c0,0,0,0,0,0"/>
        <path class="st3" d="M143.2,7.4s0,0,0,0"/>
        <path class="st3" d="M150.5,19s0,0-.1,0"/>
        <path class="st3" d="M147,13.6l2.2,3.1c.2.1.5.4.7.7.5.7.7,1.3.9,1.8.5,1.1,1.2,1.1,2.1,2.1,1.4,1.6,1.9,4.1,1.2,4.7-.2.2-.5.1-1,0"/>
        <path class="st3" d="M73.3,13.7h0c-.2-.4-.3-.7-.3-1,0-.3,0-.8,1.3-2.4,1.6-2,1.9-2.9,2.7-2.9,0,0,0,0,.1,0"/>
        <path class="st3" d="M69.8,19c0,0,.1.1.2.2"/>
        <path class="st3" d="M73.2,13.6h0s-2.2,3.1-2.2,3.1c-.2.2-.5.4-.7.7-.6.7-.7,1.3-.9,1.8-.5,1.1-1.2,1.1-2.1,2.1-1.4,1.6-1.9,4.1-1.2,4.7.1.1.3.1.5.1h0"/>
        <path class="st3" d="M147,13.5c.2-.3.3-.6.3-.9,0-.4,0-.9-1.3-2.4-1.6-2-1.9-2.9-2.6-2.9,0,0,0,0-.1,0"/>
      </g>
    </g>
  </g>
  <g id="Layer_1">
    <path class="st1" d="M72.9,177.5l-4.7-17.1M81.3,132.1h57M134.9,129c.8,4.9,2.4,10.2,3.4,12.9,3.1,8.6,7.2,14.5,9.3,17.3,1,1.4,4.2,5.4,4.8,6.1M84.8,129c-.8,4.9-2.4,10.2-3.4,12.9-3.1,8.6-7.2,14.5-9.3,17.3-1,1.4-4.2,5.4-4.8,6.2M55.3,190.7c-9.3-4-20.9,1-21.9,1.9M104.6,30.2h11.1M102,29h16.2M186.5,192.2c-.9.2-6.5,1.4-6.6,1.4h-2.2c-.2,0-13.8-3.7-14-3.7M158.2,177.1c-.8,0-2.1,0-3.6,0-2.1,0-3.5-.2-5.2-.4-1.6-.1-3.9-.3-6.3-.5-3.2-.2-5.6,0-8.2,0-1.7,0-4,.2-8.6.5-4.7.3-13.3.3-16.3.4M62.1,177.1c.8,0,2.1,0,3.6,0,2.1,0,3.5-.2,5.2-.4,1.6-.1,4.5-.4,6.9-.5,3.2-.2,5.6,0,8.2,0,1.7,0,4,.2,8.6.5,4.7.3,12.2.4,15.2.4M146.7,177.5l4.7-17.1"/>
    <path class="st2" d="M110.2,28.3V5.5h0M179.6,124.8c.9-.4,1.7-.7,2.2-.8.5-.2.8-.3.8-.3,0,0-1,.6-1.4.8-.6.3-1.3.6-1.5.7-1.1.4-2.1.8-3.2,1.2v-.4c.9-.4,2-.8,3.1-1.2h0ZM173,127c-1,.3-1.7.5-2.2.7s-.8.3-.8.3c0,0,1.2-.1,1.6-.2.6,0,1.4-.3,1.6-.3,1.1-.3,2.2-.6,3.3-1v-.4c-1.2.4-2.3.7-3.4,1h0ZM170.2,123.7c-.9.4-1.6.7-2.1.9-.5.2-.8.3-.8.3,0,0,.2-.2.5-.4s.6-.4.8-.5c.6-.3,1.2-.7,1.4-.7,1.1-.4,2.1-.8,3.3-1.1v.4c-1,.3-2.1.6-3.1,1.1h0ZM176.7,122c1,0,1.8-.2,2.3-.2.5,0,.8,0,.8,0,0,0-.3,0-.6,0-.3,0-.7,0-.9,0-.7,0-1.4,0-1.6,0-1.1.1-2.3.3-3.4.6v.4c1.2-.3,2.3-.5,3.4-.6h0ZM176.6,167.6c0,0-.2,0-.1,0,0-.4.4-1.7.7-3.3.4-1.7.8-3.8,1.2-6,.8-4.4,1.6-9.1,1.8-10.8.5-3.4,1-7.1,1.3-8.7,0,0,0,.3,0,.9s0,1.3-.1,2.2c-.1,1.8-.3,4-.6,5.7-.2,1.7-1,6.4-1.9,10.8-.4,2.2-.9,4.3-1.4,6-.4,1.7-.7,2.9-.9,3.3h0ZM181.6,138.6c.1-2.1.3-5.3.5-8.8.1-1.7.4-6.6.4-11.3,0-2.3,0-4.6,0-6.4,0-1.8,0-3.1,0-3.6s.1,0,.1,0c0,.4.1,1.8.2,3.6,0,1.8.1,4.1.1,6.5,0,4.7-.2,9.6-.3,11.4,0,.9-.1,1.9-.2,2.8-.1,1-.2,2-.4,2.9-.1.9-.2,1.7-.3,2.2s-.1.9-.1.8h0ZM52.5,166.2c0,.1-.1.2-.1,0-.1-.6-.5-2.6-1.1-5.3-.5-2.7-1.2-6-1.8-9.5-1.3-6.9-2.5-14.2-2.9-16.9-.8-5.4-1.5-11.1-1.7-13.7,0,0,0,.5.2,1.3.1.8.4,2.1.6,3.4.5,2.8,1,6.2,1.5,8.9.4,2.7,1.5,10,2.7,16.9.6,3.5,1.2,6.9,1.7,9.5.5,2.7.9,4.6,1,5.3h0ZM44.9,120.6c-.3-1.7-.6-3.7-.9-6.1-.3-2.3-.6-4.9-.9-7.6-.3-2.7-1.1-10.4-1.6-17.8-.3-3.7-.5-7.3-.7-10.1-.2-2.8-.3-4.9-.3-5.6,0-.2.1-.2.1,0,0,.7.2,2.7.4,5.6.2,2.8.5,6.4.8,10.1.6,7.4,1.5,15.1,1.8,17.8.1,1.3.3,2.9.5,4.5.1,1.6.3,3.1.4,4.5.2,2.8.4,4.7.4,4.8h0ZM140.1,162c0,.1-.2,0-.1,0,.2-.6.8-2.4,1.6-4.9.8-2.5,1.8-5.6,2.8-8.8,2-6.4,3.9-13.2,4.6-15.7,1.4-5,2.9-10.3,3.6-12.7,0,0,0,.4-.3,1.2s-.4,1.9-.7,3.2c-.6,2.6-1.4,5.9-2.1,8.3-.7,2.5-2.7,9.3-4.8,15.7-1,3.2-2.1,6.3-2.9,8.8-.8,2.4-1.5,4.2-1.7,4.8h0ZM152.7,119.6c.7-3.1,1.8-7.8,2.9-12.9.6-2.5,2.2-9.7,3.6-16.6.7-3.4,1.3-6.8,1.8-9.5.5-2.7.8-4.6,1-5.2,0-.1.2-.1.1,0,0,.6-.4,2.6-.8,5.3-.5,2.7-1,6.1-1.7,9.5-1.3,6.9-2.9,14.2-3.4,16.7-.3,1.3-.6,2.7-1,4.2-.4,1.4-.8,2.9-1.1,4.2s-.7,2.4-.9,3.2c-.2.8-.4,1.3-.4,1.2h0ZM79,146.3c0,.1,0,.2-.1,0-.2-.5-1-1.9-2-3.8-.9-2-2.2-4.4-3.3-7-2.3-5.2-4.4-10.7-5.1-12.8-.8-2.1-1.4-4.2-2-6.1-.6-1.9-1-3.5-1.3-4.5,0,0,.1.3.4,1,.2.7.5,1.6.9,2.6.8,2.1,1.7,4.7,2.5,6.8.7,2.1,2.8,7.6,5,12.8,1.1,2.6,2.2,5.1,3.2,7.1.9,2,1.6,3.4,1.8,3.9h0ZM65.2,111.9c-.4-1.3-.9-2.9-1.5-4.7-.3-.9-.5-1.9-.8-2.9-.3-1-.5-2-.8-3.1-.5-2.1-1.8-8.2-2.7-14.1-.5-2.9-.8-5.8-1.1-8.1-.2-2.3-.4-3.9-.4-4.5,0-.1.1-.1.1,0,0,.5.3,2.2.5,4.4.3,2.3.7,5.1,1.2,8,1,5.8,2.3,11.9,2.8,14,.2,1.1.5,2.3.8,3.5.3,1.2.5,2.5.8,3.5.5,2.2.9,3.7.9,3.8h0ZM157.1,90.5c0,0-.1,0-.1,0,0-.5.6-2.8,1.1-5.2.5-2.4,1-5,1.1-6,.4-1.9.8-3.9,1-4.8,0,0,0,.2,0,.5,0,.3,0,.7,0,1.2,0,1-.2,2.2-.4,3.2-.2.9-.7,3.5-1.3,5.9s-1.2,4.7-1.3,5.2h0ZM51.1,121c1.1-.4,1.9-.6,1.9-.6,0,0-.6.4-.8.5-.4.2-.8.4-.9.4-.6.3-1.3.5-2,.7v-.4c.5-.2,1.2-.4,1.8-.7h0ZM47.2,122.3c-1.2.3-1.8.7-1.8.7,0,0,.7,0,1,0,.4,0,.9-.1,1-.2.7-.2,1.4-.4,2-.6v-.4c-.8.2-1.5.4-2.1.6ZM41.3,119.9c-.7.4-1.3.8-1.7,1-.4.2-.6.3-.6.3,0,0,.2-.2.4-.4.2-.2.5-.4.6-.5.4-.4,1-.7,1.1-.8.9-.5,1.7-.9,2.6-1.3l.2.4c-.9.4-1.8.8-2.6,1.3h0ZM46.7,117.7c.8-.2,1.5-.4,1.9-.5.5-.1.7-.2.7-.2,0,0-.2,0-.5,0-.3,0-.6,0-.8,0-.6,0-1.2.2-1.4.2-1,.2-1.9.5-2.8.9l.2.4c.9-.4,1.8-.7,2.8-.9Z"/>
    <path class="st3" d="M57.8,56.8v-.7c.3-.9,2.4-11.3,9.8-16.4.8-.5,1.5-1,2.1-1.6.2-.2.5-.4.7-.6.7-.6,1.4-1.2,2.1-1.8.1-.1.3-.2.4-.3.3-.3.7-.6,1-.9.6-.5,1.2-1,1.8-1.5.2-.1.3-.2.5-.4.2-.1.3-.2.5-.4.2-.1.4-.2.5-.4.2-.1.4-.3.6-.4.2-.1.5-.3.7-.5M162,56.8c-.4-.9-2.5-12-9.8-17.1-3.7-2.6-5.7-5.2-10.3-8.1M97.9,81.2v2.4s0,2.6,0,2.6c0,.4,0,.7,0,1.5,0,.5,0,.8.2,1,0,0,.3.4.6.4.3,0,.6-.3.7-.6v-2.7c0,0,.2-4.5.2-4.5h-1.7ZM121.6,81.2v2.4s0,2.6,0,2.6c0,.4,0,.7,0,1.5,0,.5,0,.8-.2,1,0,0-.3.4-.6.4-.3,0-.6-.3-.7-.6v-2.7c0,0-.2-4.5-.2-4.5h1.7ZM120,85.7v2.7c.2.4.5.6.8.6.3,0,.6-.3.6-.4.2-.2.2-.5.2-1,0-.8,0-1.1,0-1.5v-2.6c0,0,0-2.4,0-2.4h-1.7v4.5c0,0,0,0,0,0ZM110.4,42.6h-.3c0,0,0,0,.1-.1,0,0,.1,0,.1.1ZM110.6,42.4l-.2.2h-.1c.1-.1.2-.1.3-.2ZM110.1,42.5h.3c0,0,.2-.1.2-.1.2,0,.5-.1.7-.2h0l-1.2.3ZM185.9,193.6c0,0,.1,0,.1,0,.2-.3.3-.6.5-1,.4-.7.5-1.5.5-2.3,0-.4.1-1.1.3-1.8,0-.1,0-.3.1-.4,0-.2,0-.4.1-.6.1-.5.2-1,.2-1.4,0-1.8-.1-3.6-.2-5.2,0-.5,0-.9,0-1.4s0-.9,0-1.3c0-2.2-.1-4.2-.1-6,0-.4,0-.7,0-1.1,0-5,0-9,0-13,.1-3.3-.5-10.6-1.7-25.1-.7-8.9-1.7-21-3.6-37-1.2-10.7-1.6-17.5-2.3-22.1l-1.8-10.2c-1-4.3-2.1-8.5-2.6-11.6-.4-1.6-1-3.9-2.1-6.5-1.3-3-4.4-10.1-11.3-14.5-1.2-.8-4.2-2.5-9.2-5,0,0-.1,0-.2-.1M160.5,166.7l.5-5.6c0-.6.1-1.3-.1-1.9-.9-1.8-1.2-4.8-1.2-4.8v-.2c0,0,.5-.1.5-.1.4-3.4.8-6.9,1.2-10.4.5-5,.8-9.8,1-14.4.2-1.9.2-4.6-.7-7.6-.4-1.5-.9-2.4-1.3-3.3,0,0,0-.2-.1-.3v-.3c-.1,0-.1-.1-.1-.1,0-2.5,1.4-30.5,1.5-43.4,0-1.2,0-2.3,0-3.2,0-4.7.2-9.8.4-14.1M185.9,193.6c-.9.2-5.6,1.2-5.7,1.2h-2.2c-.2,0-12.4-3.1-12.6-3.1,0,0-1.5-.3-1.7-2.1,0,0-1.7-6.8-1.9-10.8M157.9,178.2c-6.5,0-12.2-1-18.6-1M149.1,177.9l3-11.6,1-3.8c-.6-.8-1.5-1.9-2.6-3.4-.3-.4-5-5-9.7-18.1-1-2.8-2.2-6.9-3.1-11.9h-3.6c-16.3-.9-32.5-.4-48.8,0h-3.6c-.9,5.1-2.1,9.1-3.1,12-3.2,9-7.5,15.1-9.7,18.1-1,1.5-2,2.6-2.6,3.4l1,3.8,3,11.6,5.3-.5,4.9-.2h4.4c0,0,17.4.9,17.4.9h16.3l16.2-.9h3.4c0,0,3.6,0,3.6,0l7,.6h0ZM165.7,191.8c-.2,0-.3,0-.3,0,0,0-1.5-.3-1.7-2.1,0,0-1.7-6.8-1.9-10.8-.1-1.8-.6-5.6-1-9.3l-.3-4M158.8,173.9v.6c0,0-1.3,14.7-1.3,14.7h-47.5M160.4,166.7l-.2,1.9c-.1,1.3-.4,2.6-.9,3.9l-.6,1.4M67.1,26c-5,2.5-8,4.3-9.1,5-6.9,4.4-10.1,11.5-11.3,14.5-1.1,2.6-1.7,5-2.1,6.5-.5,3-1.7,7.2-2.6,11.6-.9,3.7-1.3,7.1-1.8,10.2-.7,4.6-1.8,11.4-3,22.1-1.9,16-2.2,28.1-2.9,37-1.2,14.5-1.8,21.8-1.7,25.1.2,7.3-.6,14.6-.3,28,0,1.4.5,3.5.7,4.2,0,0,0,0,0,.1-.2-.6.1,1.6.4,2.2,0,.2.2.3.2.5l.3.4M57.8,56.2c.1,13.3,1.7,53.1,1.7,54.3M59.4,166.7l.2,1.9c.1,1.3.4,2.6.9,3.9l.6,1.4M80.5,177.3c-6.5,0-12.6,1.2-19.1,1.2l1,10.8h47.5M35.7,203.6c-.2.9-.8,2.8-.7,5.5,0,1.2.2,2.2.4,2.8,0-.6,5.7-1.8,9.7-2,3.7-.2,7.8.2,8.3.7h.1c.1-.7.2-1.7.2-2.9,0-2.7-.8-4.6-1-5.4-.5-1.9-.5-6.1,1.6-10.8-8.9-3.2-19.1,1.4-20.3,1.9,1.9,4.2,2.2,8.3,1.8,10.1h0ZM61.1,173.9l.7,8M54.2,191.6h.6c.5-.3,1.2-.8,1.3-2,0,0,1.7-6.8,1.9-10.8.1-2.1.7-6.9,1.2-11v-1.6c.1,0,0-.6,0-.6l-.5-5.4v-.7c0,0,.6-1.2.6-1.2l.3-.8.3-1.2.2-1.1v-.7c0,0,.2-.4.2-.4h-.6c0-.1-.4-3.1-.4-3.1l-.4-3.8-.8-8.2-.3-4.7-.2-4.6v-2.2c-.1,0-.1-1.6-.1-1.6v-.8c0,0,.2-.9.2-.9l.2-.9.2-.9.6-1.8.7-1.6.5-1,.2-.3v-.9s-.2-3.3-.2-3.3v-3M184.5,211.9h0c0,.6-5.8.5-9.8.3-4-.2-8.2-.8-8.2-1.4,0,0,0,0,0-.1.5-.6,4.5-.9,8.3-.7,4,.2,9.7,1.4,9.7,2h0ZM185.8,193.6c-1.9,4.2-2.1,8.2-1.7,10,.2.9.8,2.8.7,5.5,0,1.2-.2,2.2-.4,2.8M166.5,210.6h-.1c-.1-.7-.2-1.7-.2-2.9,0-2.7.8-4.6,1-5.4.5-1.9.5-6-1.5-10.6M35.4,211.9h0c0,.6,5.8.5,9.8.3,4-.2,8.2-.8,8.2-1.4,0,0,0,0,0-.1-.5-.6-4.5-.9-8.3-.7-4,.2-9.7,1.4-9.7,2h0ZM104.6,30.7h11.1M101.2,28.3h17.7M143.2,7.3c-.3-.3-.7-.7-1.2-1.1,0,0-1-.7-2.4-.9-1.7-.3-13.3-.2-29.3.2h-.4M76.9,7.3h0c.3-.3.7-.7,1.2-1.1,0,0,1-.7,2.4-.9,1.7-.3,13.4-.2,29.5.2h.2M107.2,40l3.4,2.4,2.6-2.2,12.7-10.8c2.5-1.8,4.6-3.3,6-4.3,4.5-3.1,8.4-7,13.1-9.8.5-.3,1.5-.9,2-1.8M143.2,7.4c-.2,0-.4.3-1.1.9-.8.7-1.4,1.4-1.9,1.9-.1.1-.3.3-.4.5h0c-1.4,1.6-3.5,3.7-6.2,6-1.5,1.3-1.6,1.3-6,4.9-1.1.9-2,1.6-2.8,2.2M124.8,23.8c-3.4,2.8-4.6,3.8-7.1,5.5-1.9,1.4-4.6,6.6-5.4,8,0,0-1.7,5.1-1.7,5.1M150.5,19c-1.3,1-2.8,2.1-4.2,3.1-5,3.4-9.7,5.9-14.1,7.8M147,13.6l2.2,3.1c.2.1.5.4.7.7.6.7.7,1.3.9,1.8.5,1.1,1.2,1.1,2.1,2.1,1.4,1.6,1.9,4.1,1.2,4.7-.3.2-.6,0-1.3,0-.2,0-.4,0-.7,0-.9.2-1.5.6-1.9.9-1.4.9-2.9,1.5-4.4,2.2-2.5,1.3-9.5,4.6-14.5,6.6-4,1.6-10,3.8-18.1,6-.6.2-1.2.3-1.8.5-.2,0-.5.1-.7.2-.1,0-.2,0-.3,0M107.2,40l-12.8-10.6c-2.5-1.8-4.6-3.3-6-4.3-4.5-3.1-8.4-7-13.1-9.8-.5-.3-1.5-.9-2-1.8-.2-.3-.3-.6-.3-.9,0-.4,0-.9,1.3-2.4,1.6-2,1.9-2.9,2.7-2.9.3,0,.4.2,1.2,1,.8.7,1.4,1.4,1.9,1.9.2.2.3.4.5.5,1.4,1.5,3.5,3.6,6.1,5.9,1.5,1.3,1.6,1.3,6,4.9,1.2.9,2.2,1.7,3,2.4,3.2,2.6,4.4,3.6,6.8,5.4,1.7,1.2,6,6.9,6.5,8.2.2.1,1.5,4.8,1.7,4.9M69.8,19c1.3,1,2.8,2.1,4.2,3.1,5,3.4,9.7,5.9,14.1,7.8M73.2,13.6l-2.2,3.1c-.2.1-.5.4-.7.7-.5.7-.7,1.3-.9,1.8-.5,1.1-1.2,1.1-2.1,2.1-1.4,1.6-1.9,4.1-1.2,4.7.2.2.5.1.8,0h0c.3,0,.6,0,1,0,.9.2,1.5.6,1.9.9,1.4.9,2.9,1.5,4.4,2.2.9.5,2.4,1.2,4.2,2,3.1,1.5,7.2,3.3,10.4,4.6,4,1.6,9.9,3.8,17.7,5.9,1.1.3,2.3.6,3.4.9h.3M121.6,81.2l-.2-7.2c0-1-.2-2.4-.5-4.1-.3-1.8-.6-3.2-1-5-.6-2.4-.7-2.7-1.6-6.2-.8-3.2-1-4-1.2-4.8-.4-2.2-.8-3.9-.8-6.3,0-3.4.6-5.8.7-6.3,0-.3.2-.5.2-.8.2-.6.4-1,.5-1.4h-1.7c-.1.3-.3.7-.4,1.2,0,.3-.2.7-.3,1-.1.5-.8,2.9-.7,6.3,0,2.4.4,4.1.8,6.3.2.8.3,1.5,1.2,4.8.9,3.5,1,3.8,1.6,6.2.4,1.8.8,3.1,1,5,.3,1.7.4,3.1.5,4.1l.2,7.2M117.2,40.7c.5-.2.9-.8.9-1.4s-.7-1.5-1.5-1.5-1.5.7-1.5,1.5.2.8.5,1.1c.3.2.6.4,1,.4s.4,0,.6-.1h0ZM102.3,40.7c0,.2.2.5.2.8.1.5.8,2.9.7,6.3,0,2.4-.4,4.1-.8,6.3-.2.8-.3,1.5-1.2,4.8-.9,3.5-1.1,3.8-1.6,6.2-.4,1.8-.8,3.1-1,5-.3,1.7-.4,3.1-.5,4.1l-.2,7.2h1.7l.2-7.2c0-1,.2-2.4.5-4.1.3-1.8.6-3.2,1-5,.6-2.4.7-2.7,1.6-6.2.8-3.2,1-4,1.2-4.8.4-2.2.8-3.9.8-6.3,0-3.4-.6-5.8-.7-6.3,0-.4-.2-.7-.3-1-.2-.5-.3-.8-.4-1.2h-1.7c.2.4.3.8.5,1.4h0ZM102.3,40.7c-.5-.2-.9-.8-.9-1.4s.7-1.5,1.5-1.5,1.5.7,1.5,1.5-.2.8-.5,1.1c-.3.3-.6.4-1,.4s-.4,0-.6-.1ZM147,13.5c.2-.3.3-.6.3-.9,0-.4,0-.9-1.3-2.4-1.6-2-1.9-2.9-2.7-2.9,0,0,0,0-.1,0"/>
  </g>
</svg>