<?xml version="1.0" encoding="UTF-8"?>
<svg id="Layer_1" xmlns="http://www.w3.org/2000/svg" version="1.1" viewBox="0 0 497.2 630.1">
  <!-- Generator: Adobe Illustrator 29.1.0, SVG Export Plug-In . SVG Version: 2.1.0 Build 142)  -->
  <defs>
    <style>
      .st0 {
        stroke-dasharray: 2 2;
      }

      .st0, .st1, .st2 {
        fill: none;
      }

      .st0, .st1, .st2, .st3 {
        stroke: #fff;
        stroke-miterlimit: 10;
      }

      .st2 {
        stroke-dasharray: 2;
      }

      .st3 {
        fill: #00b921;
      }
    </style>
  </defs>
  <path id="back" class="st3" d="M444.9,146.9s47.6,115.5,51.2,116.2c0,0-67,41.8-70.3,40,0,0-11.1,5.7-25.4,3.2l-15.3-27.8,7.5,311.4s-33.2,20.7-135.2,13.9c-102-6.8-69.2,6.4-154.1-16.1l14.3-312.8-16.7,30.3-17.5-1.4s-62.4-27.5-77.4-42.4l15-27.5,38.5-93.5,9.3-12.1,27.1-23.2,55.3-30.3,29.6-10,12.1-9.3s47.1,22.5,112.3,0l13.5,9.3s33.9,10.7,38.5,14.3l42.1,23.6,35.3,27.8s8.3,12.1,10.1,16.5v.2h0Z"/>
  <g id="Back-lines">
    <path class="st2" d="M16.7,244.4s27.6,26.2,89.7,47"/>
    <path class="st2" d="M14.9,248s27.6,26.2,89.7,47"/>
    <path class="st1" d="M117.6,275s7.5-66.4-48-147.4"/>
    <polyline class="st2" points="71.6 131.3 100.1 107 142.1 82.4 184.8 65.9"/>
    <path class="st2" d="M394.6,291.6s37.4-7.4,90.1-46.2"/>
    <path class="st1" d="M319.1,65.1c-73.1,29.6-139.1,0-139.1,0"/>
    <path class="st1" d="M184.3,61.9s.2,0,.6.2"/>
    <path class="st0" d="M186.2,62.6c11.3,4,71.5,23.2,128.2-.2"/>
    <path class="st1" d="M315,62.2c.2,0,.4-.2.6-.3"/>
    <path class="st1" d="M104.8,584.9s56.4-2.1,92.7,10,88.1,4.3,88.1,4.3c0,0,77.1-22.5,107-10.3"/>
    <path class="st1" d="M104.5,568h.7"/>
    <path class="st0" d="M106.4,568c10.3-.3,58.4-.7,90.7,10.1,36.4,12.1,88.1,4.3,88.1,4.3,0,0,75-21.9,105.7-10.8"/>
    <path class="st1" d="M391.7,571.7c.2,0,.4.1.6.3"/>
    <path class="st1" d="M104.5,562.2h.7"/>
    <path class="st0" d="M106.4,562.2c10.3-.3,58.4-.7,90.7,10.1,36.4,12.1,88.1,4.3,88.1,4.3,0,0,75-21.9,105.7-10.8"/>
    <path class="st1" d="M391.7,565.9c.2,0,.4.1.6.3"/>
    <path class="st1" d="M184.3,63.3s.2,0,.6.2"/>
    <path class="st0" d="M186.1,64c11.3,4,71.5,23.2,128.2-.2"/>
    <path class="st1" d="M314.9,63.5c.2,0,.4-.2.6-.3"/>
    <polyline class="st2" points="315.8 66.9 351.3 78.8 394.1 102.1 430.3 130.2"/>
    <path class="st2" d="M396.5,295.2s37.4-7.4,90.1-46.1"/>
    <path class="st1" d="M434.7,130.4s-45.4,49.1-49.6,149"/>
  </g>
</svg>