<?xml version="1.0" encoding="UTF-8"?>
<svg id="Layer_1" xmlns="http://www.w3.org/2000/svg" version="1.1" viewBox="0 0 750.2 950.7">
  <!-- Generator: Adobe Illustrator 29.1.0, SVG Export Plug-In . SVG Version: 2.1.0 Build 142)  -->
  <defs>
    <style>
      .st0 {
        fill: #47b649;
      }

      .st1, .st2, .st3 {
        fill: none;
        stroke: #000;
        stroke-linecap: round;
        stroke-linejoin: round;
      }

      .st2 {
        stroke-dasharray: 3.6 2.4;
        stroke-width: 2.3px;
      }

      .st3 {
        isolation: isolate;
        opacity: .3;
        stroke-width: 4.3px;
      }
    </style>
  </defs>
  <path id="frente" class="st0" d="M528.7,73.3l9.6,13.4c.9.4,2.2,1.7,3.1,3.1,2.2,3.1,3.1,5.7,3.9,7.8,2.2,4.8,5.2,4.8,9.2,9.1,6.1,7,8.3,17.8,5.2,20.4-.9.9-2.2.4-4.4,0h0c20.9,11.2,33.9,18.7,38.7,21.7,30,19.1,43.9,49.9,49.2,62.8,4.8,11.2,7.4,21.3,9.2,28.1,2.6,13,7.4,31.2,11.8,50.3l7.8,44.2c3.1,20,4.8,49.4,10,95.8,8.3,69.4,12.2,121.3,15.7,160.4,5.2,62.8,7.8,94.5,7.4,108.8-.4,17.3-.9,34.7,0,56.3v4.8c0,7.8,0,16.5.4,26v11.7c0,7,.4,14.3.9,22.6,0,1.7,0,3.9-.9,6.1,0,.9-.4,1.7-.4,2.6s0,1.3-.4,1.7c-.9,3.1-1.7,6.1-1.3,7.8,0,3.5-.4,7-2.2,9.9-.9,1.3-1.3,2.6-2.2,4.4h-.4c-8.3,18.2-9.2,35.6-7.4,43.3.9,3.5,3.5,12.1,3.1,23.9,0,5.2-.9,9.1-1.3,12.1-.9-2.6-25.3-7.4-42.2-8.6-16.6-.9-33.9.9-36.1,3.1h-.4c-.4-2.6-.9-7-.9-12.1,0-11.7,3.5-20,4.4-23.4,2.2-8.2,2.2-26-6.5-45.9h-.9s-6.5-1.3-7.4-9.1c0,0-7.4-29.5-8.3-46.8-.4-7.8-2.2-24.2-4.4-40.3l-1.3-16.9h0v4.4h-.4l-.9,8.2c-.4,5.7-1.7,11.2-3.9,16.9l-2.6,6.1h0v2.6l-5.7,63.7H161.8l-4.4-46.8h0l-1.7-19.5h0l-2.6-6.1c-2.2-5.2-3.5-10.8-3.9-16.9l-.9-8.2h0v4.8c-2.6,17.8-5.2,38.6-5.7,47.7-.9,17.3-8.3,46.8-8.3,46.8,0,5.2-3.5,7.4-5.7,8.6h-2.2v.9c-9.6,20-9.6,38.2-7,45.9.9,3.9,3.9,11.7,4.4,23.4,0,5.2,0,9.5-.9,12.1h0s0-.4-.9-.4h0s-.9,0-1.7-.4h-1.3c-5.7-1.3-16.1-2.2-27-1.7h-4.8c-16.1.9-39.1,5.2-41.8,8.2h0c0-2.2-1.3-6.5-1.7-11.7,0-11.7,2.2-20,3.1-23.9h0c1.7-7.8.9-25.5-7.8-43.7h0l-1.3-1.7-.9-2.2c-1.3-3.1-3.1-12.5-1.7-9.5h0c-.9-3.5-3.1-12.1-3.1-18.7-.9-58,2.2-89.7,1.3-121.3,0-14.3,2.2-45.9,7.4-108.8,3.1-39,4.8-91,12.6-160.4,5.2-46.4,10-75.8,13.1-95.8,2.2-13.4,3.9-28.1,7.8-44.2,4.4-18.7,9.2-36.9,11.3-50.3,1.3-7,4.4-16.9,9.2-28.1,5.7-13,19.2-43.7,49.2-62.8,5.2-3.1,17.9-10.4,38.3-21.3v-.9c-.9,0-1.7,0-2.2-.4-3.1-2.6-1.3-13.4,5.2-20.4,3.9-4.4,7-4.4,9.2-9.1.9-2.2,1.3-4.8,3.9-7.8,1.3-1.3,2.6-2.6,3.1-3.1l9.6-13.4c-.9-1.3-1.3-2.6-1.3-3.9s0-3.5,5.7-10.4c7-8.6,8.3-12.5,11.8-12.5,1.3-1.3,3.1-3.1,5.2-4.8,0,0,4.4-3.1,10.5-3.9,7.4-1.3,58.3-.9,128.5.9h.9c69.7-1.7,120.2-2.2,127.6-.9,6.1.9,10.5,3.9,10.5,3.9,2.2,1.7,3.9,3.5,5.2,4.8h.4c3.5,0,4.4,3.5,11.3,12.5,5.2,7,5.7,9.1,5.7,10.4s-.4,2.6-1.3,3.9h-1.7l-.9.4h-.2Z"/>
  <path class="st2" d="M208.8,783.6l-20.3-74M245.2,586.7h247.1M477.2,573.4c3.6,21,10.5,44.4,14.7,56.1,13.4,37.5,31.4,62.8,40.3,75.1,4.4,6.1,18.1,23.3,20.7,26.5M260.3,573.4c-3.6,21-10.5,44.4-14.7,56.1-13.4,37.5-31.4,62.8-40.3,75.1-4.4,6.1-18.1,23.5-20.7,26.7M132.3,840.8c-40.2-17.2-90.6,4.5-94.9,8.1M345.8,145.3h48M334.9,140.1h70M383.1,195.8v590.4M355,195v591.7M700.9,847.5c-3.8.8-28.1,5.9-28.4,5.8l-9.4-.3c-.7,0-59.9-15.5-60.7-15.5M578.1,782.1c-3.6,0-9,.2-15.5,0-9-.3-15.1-.9-22.7-1.6-6.8-.6-19.4-1.7-29.9-2.2-13.8-.7-24.1-.4-35.5,0-7.3.2-17.3.9-37.4,2.2-20.2,1.3-27.9,2-41.1,2.2-7.9.1-14.4,0-18.7,0M161.7,782c3.6,0,9,.2,15.5,0,9-.3,15.1-.9,22.7-1.6,6.8-.6,19.4-1.7,29.9-2.2,13.8-.7,24.1-.4,35.5,0,7.3.2,17.3.9,37.4,2.2,20.2,1.3,27.9,2,41.1,2.2,7.9.1,14.4,0,18.7,0M528.6,783.5l20.3-74"/>
  <path class="st3" d="M370.3,137.3V38.3h0v-.2M670.7,555.3c4-1.6,7.2-2.8,9.5-3.6,2.2-.8,3.5-1.1,3.5-1.1,0,0-4.4,2.6-6,3.4-2.5,1.3-5.5,2.7-6.4,3.1-4.6,1.9-9.3,3.6-14,5.2l-.6-1.8c4.7-1.6,9.4-3.3,14-5.2h0ZM642.5,564.7c-4.2,1.1-7.5,2.1-9.7,2.8s-3.5,1.2-3.5,1.2c0,0,5.1-.6,6.8-.9,2.8-.4,6-1.2,7-1.4,4.8-1.3,9.6-2.7,14.3-4.3l-.6-1.8c-4.7,1.6-9.5,3-14.3,4.3h0ZM630.2,550.4c-3.9,1.6-7.1,2.9-9.2,3.8-2.1.9-3.3,1.3-3.3,1.3,0,0,1-.7,2.3-1.6s2.7-1.7,3.4-2.2c2.5-1.4,5.4-2.8,6.2-3.2,4.6-1.9,9.3-3.4,14.1-4.6l.5,1.9c-4.8,1.2-9.4,2.7-14,4.6h0ZM658.5,543.2c4.2-.4,7.6-.8,9.9-1,2.3-.2,3.6-.4,3.6-.4,0,0-1.3-.1-2.7-.3-1.5-.2-3.2-.2-4.1-.3-2.9-.1-6.1,0-7,.1-4.9.5-9.8,1.4-14.6,2.6l.5,1.9c4.8-1.2,9.6-2.1,14.5-2.6h0ZM658.1,740.9c-.1.4-.7.3-.6-.2.3-1.8,1.5-7.2,3.2-14.5,1.5-7.3,3.6-16.6,5.3-26.1,3.6-19.1,6.8-39.2,7.8-46.7,2.2-14.8,4.5-30.6,5.6-37.7,0,0,0,1.3-.2,3.7s-.3,5.8-.6,9.6c-.6,7.7-1.4,17.3-2.6,24.7-1,7.5-4.4,27.6-8.4,46.7-1.9,9.5-4.1,18.8-5.8,26.1-1.8,7.3-3.2,12.7-3.7,14.4h0ZM679.4,615.1c.6-9.3,1.4-23.1,2.3-38.1.5-7.5,1.7-28.8,1.9-49.1.2-10.2,0-20.1,0-27.9-.2-7.8-.2-13.6-.2-15.4s.6-.4.6,0c.1,1.8.4,7.6.8,15.4.2,7.8.5,17.8.5,28,0,20.4-.9,41.8-1.4,49.3-.2,3.8-.6,8-1.1,12.3-.5,4.3-1,8.6-1.5,12.4-.6,3.8-1,7.2-1.4,9.5s-.6,3.7-.6,3.6h0ZM120.4,734.8c0,.6-.5.8-.6.1-.6-2.8-2.4-11.3-4.8-22.8-2.3-11.6-5.2-26.2-7.9-41.2-5.5-30-10.7-61.7-12.3-73.4-3.6-23.3-6.4-48.2-7.5-59.5,0,.2.3,2,1,5.7.6,3.7,1.5,8.9,2.5,14.9,2.1,12,4.5,26.9,6.3,38.6,1.7,11.7,6.6,43.3,11.8,73.4,2.6,15,5.2,29.7,7.3,41.3,2.2,11.6,3.7,20.1,4.2,22.9h0ZM87.2,537c-1.1-7.2-2.4-16.2-3.9-26.3-1.3-10.1-2.8-21.4-4.1-33.1-1.3-11.7-4.6-45.1-7.1-77-1.3-16-2.3-31.6-3-43.8-.7-12.3-1.2-21.4-1.3-24.2,0-.6.6-.7.6,0,.3,2.8,1,11.9,1.8,24.2,1,12.3,2.1,27.9,3.6,43.8,2.8,31.9,6.3,65.2,7.6,76.9.6,5.8,1.3,12.6,1.9,19.3.6,6.8,1.3,13.5,1.8,19.6,1.1,12.1,1.8,20.5,1.9,20.8h0ZM500,716.3c-.2.6-.8.4-.6-.2.8-2.6,3.3-10.4,6.9-21.1,3.4-10.7,7.8-24.2,12.1-38.1,8.6-27.8,17-57.2,20-68.1,6.2-21.6,12.7-44.6,15.6-55,0,.2-.4,1.9-1.2,5.4s-1.9,8.4-3.1,14.1c-2.6,11.3-6,25.3-9.1,36.1-2.9,10.9-11.7,40.2-20.6,68-4.4,13.9-9,27.3-12.6,38-3.7,10.6-6.5,18.4-7.4,21h0ZM554.2,532.7c3.1-13.6,7.6-33.8,12.6-55.8,2.5-11,9.6-42.2,15.5-72.1,3-14.9,5.7-29.6,7.9-41.2,2.1-11.6,3.6-20.1,4.2-22.7.1-.6.7-.5.6,0-.4,2.7-1.7,11.2-3.6,22.8-2,11.6-4.5,26.3-7.4,41.3-5.6,30-12.4,61.3-14.9,72.3-1.2,5.5-2.8,11.7-4.4,18-1.6,6.2-3.3,12.6-4.9,18.1s-3,10.4-3.9,13.9c-1,3.4-1.6,5.5-1.6,5.3h0ZM234.9,648.6c.2.5-.3.7-.6.3-1.1-2-4.2-8.2-8.5-16.6-4.1-8.5-9.3-19.3-14.2-30.5-9.9-22.4-19.1-46.4-22.1-55.4-3.2-8.9-6.1-18.2-8.6-26.3-2.4-8.2-4.3-15.2-5.5-19.6,0-.1.6,1.5,1.6,4.4,1,2.8,2.4,6.8,4,11.4,3.3,9.1,7.5,20.5,10.7,29.4,3,9,12,33,21.5,55.5,4.7,11.3,9.7,22.1,13.6,30.7,4.1,8.5,7.1,14.8,8,16.9h0ZM175.2,499.5c-1.8-5.5-3.9-12.5-6.3-20.4-1.1-3.9-2.3-8.1-3.4-12.4-1.2-4.3-2.3-8.8-3.4-13.4-2.2-9.2-7.9-35.5-11.8-60.9-2-12.7-3.5-25.1-4.7-34.9-1-9.8-1.7-17.1-1.8-19.3,0-.5.6-.6.6,0,.3,2.3,1.2,9.4,2.4,19.2,1.4,9.8,3.1,22.2,5.2,34.8,4.2,25.3,10.1,51.5,12.3,60.6,1,4.6,2.3,9.8,3.5,15.1,1.2,5.3,2.3,10.7,3.5,15.3,2.2,9.4,3.8,16.1,3.8,16.3h0ZM573.3,406.5c0,.2-.6,0-.6-.2.3-2,2.6-12,4.7-22.6,2.1-10.6,4.2-21.7,4.9-25.8,1.6-8.2,3.5-16.8,4.5-20.8,0,0,0,.7,0,2,0,1.3-.2,3.2-.4,5.4-.4,4.3-1,9.7-1.7,13.7-.7,4.1-3,15.3-5.5,25.8s-5.2,20.4-5.8,22.4h0ZM114.3,538.6c4.9-1.9,8-2.4,8-2.4,0,0-2.6,1.7-3.6,2.2-1.5.9-3.3,1.7-3.9,1.9-2.8,1.1-5.7,2.1-8.5,3.1l-.6-1.8c2.9-1,5.7-1.9,8.5-3.1h0ZM97.2,544.3c-5.1,1.4-7.8,2.9-7.8,2.9,0,0,3.1-.2,4.2-.3,1.7-.2,3.7-.6,4.2-.7,2.9-.8,5.8-1.7,8.7-2.6l-.6-1.8c-2.9,1-5.8,1.8-8.7,2.6ZM71.9,533.8c-3.2,1.8-5.6,3.3-7.4,4.2-1.7,1-2.7,1.5-2.7,1.5,0,0,.8-.7,1.7-1.6,1-.9,2-1.8,2.6-2.3,1.9-1.6,4.2-3.1,4.9-3.5,3.7-2.1,7.5-4,11.5-5.6l.7,1.8c-3.9,1.6-7.7,3.4-11.3,5.5h0ZM95.1,524.5c3.6-.9,6.4-1.6,8.3-2.1,1.9-.5,3-.8,3-.8,0,0-1.1,0-2.3,0-1.3,0-2.7.1-3.5.2-2.4.2-5.2.7-6,.9-4.1,1-8.2,2.3-12.1,3.9l.7,1.8c3.9-1.6,7.9-2.9,12-3.9ZM323,751.7c.2,0,.3.6.1.6-1.8.5-11.1,2.6-20.9,4.6-9.8,2-20.1,3.9-24,4.6-7.6,1.3-15.8,2.1-19.5,2.3,0,0,.6-.2,1.8-.5,1.2-.3,2.9-.8,4.8-1.3,3.9-1,8.7-2.1,12.5-2.8,7.6-1.3,41.5-6.9,45.1-7.6h0ZM258.4,763.9c-4.7,1.1-11.7,2.6-19.3,3.7-3.8.6-14.8,1.9-25.2,3-10.4,1.1-20.4,1.9-22.3,1.9s-.3-.6,0-.6c1.8-.4,11.7-1.6,22.1-3,10.4-1.5,21.3-3,25.1-3.6,3.8-.5,8.8-.9,12.8-1.1,2,0,3.7-.2,5-.2,1.2,0,1.9,0,1.9,0h0ZM399.6,741.1c-.2,0-.1-.6.1-.6,4.2.5,41.9,7.6,50.3,9.4,8.5,1.7,17.3,4,21.4,5.2.2,0-13.3-1.2-21.8-2.9-8.5-1.7-46-9.8-50-11h0ZM471.8,755.1c5.3.7,13.3,1.8,21.7,3.5,8.5,1.7,48.1,10.3,52.1,11.4.2,0,.1.6-.1.6-4.2-.5-44-8.1-52.5-9.7-8.5-1.7-21.5-5.8-21.3-5.8h0Z"/>
  <path class="st1" d="M134.1,156.2s6,38.2,7.7,57.4c.6,7,1,21.1,1,21.1l.6,18.8c.2,55.1,7.1,234.3,7.1,239.6M317.2,366.5v10.3c0,0,.3,11,.3,11,0,1.9-.2,3-.2,6.5,0,2.2,0,3.4.9,4.5.2.3,1.2,1.6,2.7,1.6,1.3,0,2.4-1.1,2.9-2.7l.3-11.7.3-19.5h-7.3ZM419.6,366.5v10.3c0,0-.3,11-.3,11,0,1.9.2,3,.2,6.5,0,2.2,0,3.4-.9,4.5-.3.3-1.3,1.7-2.7,1.6-1.3,0-2.4-1.1-2.9-2.7l-.3-11.7-.3-19.5h7.3ZM412.6,386l.3,11.7c.4,1.6,1.6,2.6,2.9,2.7,1.5,0,2.5-1.3,2.7-1.6.8-1.1.9-2.3.9-4.5,0-3.5-.2-4.6-.2-6.5l.2-11v-10.3c0,0-7.1,0-7.1,0l.3,19.5h0ZM368,815.4h5.6v1.4h-5.6v-1.4ZM364.4,817h5.6v1.4h-5.6v-1.4ZM368,812h5.6v1.4h-5.6v-1.4ZM364.4,813.7h5.6v1.4h-5.6v-1.4ZM368,808.6h5.6v1.4h-5.6v-1.4ZM364.4,810.2h5.6v1.4h-5.6v-1.4ZM368,805.3h5.6v1.4h-5.6v-1.4ZM364.4,806.9h5.6v1.4h-5.6v-1.4ZM368,801.8h5.6v1.4h-5.6v-1.4ZM364.4,803.5h5.6v1.4h-5.6v-1.4ZM368,798.5h5.6v1.4h-5.6v-1.4ZM364.4,800.2h5.6v1.4h-5.6v-1.4ZM368,795.1h5.6v1.4h-5.6v-1.4ZM364.4,796.8h5.6v1.4h-5.6v-1.4ZM368,791.8h5.6v1.4h-5.6v-1.4ZM364.4,793.4h5.6v1.4h-5.6v-1.4ZM368,788.4h5.6v1.4h-5.6v-1.4ZM364.4,790h5.6v1.4h-5.6v-1.4ZM368,785h5.6v1.4h-5.6v-1.4ZM364.4,786.7h5.6v1.4h-5.6v-1.4ZM368,781.7h5.6v1.4h-5.6v-1.4ZM364.4,783.3h5.6v1.4h-5.6v-1.4ZM368,778.4h5.6v1.4h-5.6v-1.4ZM364.4,780h5.6v1.4h-5.6v-1.4ZM368,774.9h5.6v1.4h-5.6v-1.4ZM364.4,776.6h5.6v1.4h-5.6v-1.4ZM368,771.6h5.6v1.4h-5.6v-1.4ZM364.4,773.3h5.6v1.4h-5.6v-1.4ZM368,768.2h5.6v1.4h-5.6v-1.4ZM364.4,769.9h5.6v1.4h-5.6v-1.4ZM368,764.9h5.6v1.4h-5.6v-1.4ZM364.4,766.6h5.6v1.4h-5.6v-1.4ZM368,761.5h5.6v1.4h-5.6v-1.4ZM364.4,763.2h5.6v1.4h-5.6v-1.4ZM368,758.2h5.6v1.4h-5.6v-1.4ZM364.4,759.8h5.6v1.4h-5.6v-1.4ZM368,754.7h5.6v1.4h-5.6v-1.4ZM364.4,756.4h5.6v1.4h-5.6v-1.4ZM368,751.4h5.6v1.4h-5.6v-1.4ZM364.4,753.1h5.6v1.4h-5.6v-1.4ZM368,748h5.6v1.4h-5.6v-1.4ZM364.4,749.6h5.6v1.4h-5.6v-1.4ZM368,744.7h5.6v1.4h-5.6v-1.4ZM364.4,746.3h5.6v1.4h-5.6v-1.4ZM368,741.2h5.6v1.4h-5.6v-1.4ZM364.4,742.9h5.6v1.4h-5.6v-1.4ZM368,737.9h5.6v1.4h-5.6v-1.4ZM364.4,739.6h5.6v1.4h-5.6v-1.4ZM368,734.8h5.6v1.4h-5.6v-1.4ZM364.4,736.5h5.6v1.4h-5.6v-1.4ZM368,731.5h5.6v1.4h-5.6v-1.4ZM364.4,733.1h5.6v1.4h-5.6v-1.4ZM368,728.1h5.6v1.4h-5.6v-1.4ZM364.4,729.7h5.6v1.4h-5.6v-1.4ZM368,724.7h5.6v1.4h-5.6v-1.4ZM364.4,726.4h5.6v1.4h-5.6v-1.4ZM368,721.3h5.6v1.4h-5.6v-1.4ZM364.4,723h5.6v1.4h-5.6v-1.4ZM368,718.1h5.6v1.4h-5.6v-1.4ZM364.4,719.7h5.6v1.4h-5.6v-1.4ZM368,714.6h5.6v1.4h-5.6v-1.4ZM364.4,716.3h5.6v1.4h-5.6v-1.4ZM368,711.3h5.6v1.4h-5.6v-1.4ZM364.4,713h5.6v1.4h-5.6v-1.4ZM368,707.9h5.6v1.4h-5.6v-1.4ZM364.4,709.6h5.6v1.4h-5.6v-1.4ZM368,704.6h5.6v1.4h-5.6v-1.4ZM364.4,706.2h5.6v1.4h-5.6v-1.4ZM368,701.2h5.6v1.4h-5.6v-1.4ZM364.4,702.8h5.6v1.4h-5.6v-1.4ZM368,697.8h5.6v1.4h-5.6v-1.4ZM364.4,699.5h5.6v1.4h-5.6v-1.4ZM368,694.4h5.6v1.4h-5.6v-1.4ZM364.4,696h5.6v1.4h-5.6v-1.4ZM368,691.1h5.6v1.4h-5.6v-1.4ZM364.4,692.7h5.6v1.4h-5.6v-1.4ZM368,687.7h5.6v1.4h-5.6v-1.4ZM364.4,689.4h5.6v1.4h-5.6v-1.4ZM368,684.4h5.6v1.4h-5.6v-1.4ZM364.4,686h5.6v1.4h-5.6v-1.4ZM368,681h5.6v1.4h-5.6v-1.4ZM364.4,682.6h5.6v1.4h-5.6v-1.4ZM368,677.6h5.6v1.4h-5.6v-1.4ZM364.4,679.3h5.6v1.4h-5.6v-1.4ZM368,674.2h5.6v1.4h-5.6v-1.4ZM364.4,675.9h5.6v1.4h-5.6v-1.4ZM368,671h5.6v1.4h-5.6v-1.4ZM364.4,672.6h5.6v1.4h-5.6v-1.4ZM368,667.5h5.6v1.4h-5.6v-1.4ZM364.4,669.2h5.6v1.4h-5.6v-1.4ZM368,664.2h5.6v1.4h-5.6v-1.4ZM364.4,665.9h5.6v1.4h-5.6v-1.4ZM368,660.8h5.6v1.4h-5.6v-1.4ZM364.4,662.5h5.6v1.4h-5.6v-1.4ZM368,657.5h5.6v1.4h-5.6v-1.4ZM364.4,659.1h5.6v1.4h-5.6v-1.4ZM368,654.1h5.6v1.4h-5.6v-1.4ZM364.4,655.7h5.6v1.4h-5.6v-1.4ZM368,650.7h5.6v1.4h-5.6v-1.4ZM364.4,652.4h5.6v1.4h-5.6v-1.4ZM368,647.3h5.6v1.4h-5.6v-1.4ZM364.4,648.9h5.6v1.4h-5.6v-1.4ZM368,644h5.6v1.4h-5.6v-1.4ZM364.4,645.6h5.6v1.4h-5.6v-1.4ZM368,640.5h5.6v1.4h-5.6v-1.4ZM364.4,642.2h5.6v1.4h-5.6v-1.4ZM368,637.3h5.6v1.4h-5.6v-1.4ZM364.4,638.9h5.6v1.4h-5.6v-1.4ZM368,633.8h5.6v1.4h-5.6v-1.4ZM364.4,635.5h5.6v1.4h-5.6v-1.4ZM368,630.5h5.6v1.4h-5.6v-1.4ZM364.4,632.2h5.6v1.4h-5.6v-1.4ZM368,627.1h5.6v1.4h-5.6v-1.4ZM364.4,628.8h5.6v1.4h-5.6v-1.4ZM368,623.8h5.6v1.4h-5.6v-1.4ZM364.4,625.5h5.6v1.4h-5.6v-1.4ZM368,620.4h5.6v1.4h-5.6v-1.4ZM364.4,622h5.6v1.4h-5.6v-1.4ZM368,617.1h5.6v1.4h-5.6v-1.4ZM364.4,618.8h5.6v1.4h-5.6v-1.4ZM368,613.7h5.6v1.4h-5.6v-1.4ZM364.4,615.3h5.6v1.4h-5.6v-1.4ZM368,610.3h5.6v1.4h-5.6v-1.4ZM364.4,612h5.6v1.4h-5.6v-1.4ZM368,606.9h5.6v1.4h-5.6v-1.4ZM364.4,608.6h5.6v1.4h-5.6v-1.4ZM368,603.6h5.6v1.4h-5.6v-1.4ZM364.4,605.2h5.6v1.4h-5.6v-1.4ZM368,600.2h5.6v1.4h-5.6v-1.4ZM364.4,601.8h5.6v1.4h-5.6v-1.4ZM368,596.8h5.6v1.4h-5.6v-1.4ZM364.4,598.5h5.6v1.4h-5.6v-1.4ZM368,593.4h5.6v1.4h-5.6v-1.4ZM364.4,595.1h5.6v1.4h-5.6v-1.4ZM368,590.1h5.6v1.4h-5.6v-1.4ZM364.4,591.8h5.6v1.4h-5.6v-1.4ZM368,586.7h5.6v1.4h-5.6v-1.4ZM364.4,588.3h5.6v1.4h-5.6v-1.4ZM368,583.4h5.6v1.4h-5.6v-1.4ZM364.4,585h5.6v1.4h-5.6v-1.4ZM368,580h5.6v1.4h-5.6v-1.4ZM364.4,581.7h5.6v1.4h-5.6v-1.4ZM368,576.7h5.6v1.4h-5.6v-1.4ZM364.4,578.3h5.6v1.4h-5.6v-1.4ZM368,573.3h5.6v1.4h-5.6v-1.4ZM364.4,574.9h5.6v1.4h-5.6v-1.4ZM368,569.9h5.6v1.4h-5.6v-1.4ZM364.4,571.6h5.6v1.4h-5.6v-1.4ZM368,566.5h5.6v1.4h-5.6v-1.4ZM364.4,568.2h5.6v1.4h-5.6v-1.4ZM368,563.3h5.6v1.4h-5.6v-1.4ZM364.4,564.9h5.6v1.4h-5.6v-1.4ZM368,559.8h5.6v1.4h-5.6v-1.4ZM364.4,561.5h5.6v1.4h-5.6v-1.4ZM368,556.5h5.6v1.4h-5.6v-1.4ZM364.4,558.1h5.6v1.4h-5.6v-1.4ZM368,553.1h5.6v1.4h-5.6v-1.4ZM364.4,554.7h5.6v1.4h-5.6v-1.4ZM368,549.7h5.6v1.4h-5.6v-1.4ZM364.4,551.4h5.6v1.4h-5.6v-1.4ZM368,546.3h5.6v1.4h-5.6v-1.4ZM364.4,548h5.6v1.4h-5.6v-1.4ZM368,543h5.6v1.4h-5.6v-1.4ZM364.4,544.7h5.6v1.4h-5.6v-1.4ZM368,539.6h5.6v1.4h-5.6v-1.4ZM364.4,541.2h5.6v1.4h-5.6v-1.4ZM368,536.3h5.6v1.4h-5.6v-1.4ZM364.4,537.9h5.6v1.4h-5.6v-1.4ZM368,532.9h5.6v1.4h-5.6v-1.4ZM364.4,534.6h5.6v1.4h-5.6v-1.4ZM368,529.6h5.6v1.4h-5.6v-1.4ZM364.4,531.2h5.6v1.4h-5.6v-1.4ZM368,526.2h5.6v1.4h-5.6v-1.4ZM364.4,527.8h5.6v1.4h-5.6v-1.4ZM368,522.8h5.6v1.4h-5.6v-1.4ZM364.4,524.5h5.6v1.4h-5.6v-1.4ZM368,519.4h5.6v1.4h-5.6v-1.4ZM364.4,521.1h5.6v1.4h-5.6v-1.4ZM368,516.2h5.6v1.4h-5.6v-1.4ZM364.4,517.8h5.6v1.4h-5.6v-1.4ZM368,512.7h5.6v1.4h-5.6v-1.4ZM364.4,514.4h5.6v1.4h-5.6v-1.4ZM368,509.4h5.6v1.4h-5.6v-1.4ZM364.4,511h5.6v1.4h-5.6v-1.4ZM368,506h5.6v1.4h-5.6v-1.4ZM364.4,507.6h5.6v1.4h-5.6v-1.4ZM368,502.6h5.6v1.4h-5.6v-1.4ZM364.4,504.3h5.6v1.4h-5.6v-1.4ZM368,499.2h5.6v1.4h-5.6v-1.4ZM364.4,500.9h5.6v1.4h-5.6v-1.4ZM368,495.9h5.6v1.4h-5.6v-1.4ZM364.4,497.5h5.6v1.4h-5.6v-1.4ZM368,492.5h5.6v1.4h-5.6v-1.4ZM364.4,494.1h5.6v1.4h-5.6v-1.4ZM368,489.1h5.6v1.4h-5.6v-1.4ZM364.4,490.8h5.6v1.4h-5.6v-1.4ZM368,485.7h5.6v1.4h-5.6v-1.4ZM364.4,487.4h5.6v1.4h-5.6v-1.4ZM368,482.4h5.6v1.4h-5.6v-1.4ZM364.4,484.1h5.6v1.4h-5.6v-1.4ZM368,479h5.6v1.4h-5.6v-1.4ZM364.4,480.7h5.6v1.4h-5.6v-1.4ZM368,475.7h5.6v1.4h-5.6v-1.4ZM364.4,477.4h5.6v1.4h-5.6v-1.4ZM368,472.3h5.6v1.4h-5.6v-1.4ZM364.4,474h5.6v1.4h-5.6v-1.4ZM368,469h5.6v1.4h-5.6v-1.4ZM364.4,470.7h5.6v1.4h-5.6v-1.4ZM368,465.6h5.6v1.4h-5.6v-1.4ZM364.4,467.2h5.6v1.4h-5.6v-1.4ZM368,462.3h5.6v1.4h-5.6v-1.4ZM364.4,463.9h5.6v1.4h-5.6v-1.4ZM368,458.9h5.6v1.4h-5.6v-1.4ZM364.4,460.5h5.6v1.4h-5.6v-1.4ZM368,455.5h5.6v1.4h-5.6v-1.4ZM364.4,457.2h5.6v1.4h-5.6v-1.4ZM368,452.1h5.6v1.4h-5.6v-1.4ZM364.4,453.8h5.6v1.4h-5.6v-1.4ZM368,448.8h5.6v1.4h-5.6v-1.4ZM364.4,450.4h5.6v1.4h-5.6v-1.4ZM368,445.4h5.6v1.4h-5.6v-1.4ZM364.4,447h5.6v1.4h-5.6v-1.4ZM368,442h5.6v1.4h-5.6v-1.4ZM364.4,443.7h5.6v1.4h-5.6v-1.4ZM368,438.6h5.6v1.4h-5.6v-1.4ZM364.4,440.3h5.6v1.4h-5.6v-1.4ZM368,435.4h5.6v1.4h-5.6v-1.4ZM364.4,437h5.6v1.4h-5.6v-1.4ZM368,431.9h5.6v1.4h-5.6v-1.4ZM364.4,433.6h5.6v1.4h-5.6v-1.4ZM368,428.6h5.6v1.4h-5.6v-1.4ZM364.4,430.3h5.6v1.4h-5.6v-1.4ZM368,425.2h5.6v1.4h-5.6v-1.4ZM364.4,426.9h5.6v1.4h-5.6v-1.4ZM368,421.9h5.6v1.4h-5.6v-1.4ZM364.4,423.6h5.6v1.4h-5.6v-1.4ZM368,418.5h5.6v1.3h-5.6v-1.3ZM364.4,420.1h5.6v1.4h-5.6v-1.4ZM368,415.2h5.6v1.4h-5.6v-1.4ZM364.4,416.9h5.6v1.4h-5.6v-1.4ZM368,411.8h5.6v1.4h-5.6v-1.4ZM364.4,413.4h5.6v1.4h-5.6v-1.4ZM368,408.4h5.6v1.4h-5.6v-1.4ZM364.4,410.1h5.6v1.4h-5.6v-1.4ZM368,405h5.6v1.4h-5.6v-1.4ZM364.4,406.7h5.6v1.4h-5.6v-1.4ZM368,401.7h5.6v1.4h-5.6v-1.4ZM364.4,403.3h5.6v1.4h-5.6v-1.4ZM368,398.3h5.6v1.4h-5.6v-1.4ZM364.4,399.9h5.6v1.4h-5.6v-1.4ZM368,394.9h5.6v1.4h-5.6v-1.4ZM364.4,396.6h5.6v1.4h-5.6v-1.4ZM368,391.5h5.6v1.4h-5.6v-1.4ZM364.4,393.2h5.6v1.4h-5.6v-1.4ZM368,388.2h5.6v1.4h-5.6v-1.4ZM364.4,389.9h5.6v1.4h-5.6v-1.4ZM368,384.8h5.6v1.4h-5.6v-1.4ZM364.4,386.4h5.6v1.4h-5.6v-1.4ZM368,381.5h5.6v1.4h-5.6v-1.4ZM364.4,383.1h5.6v1.4h-5.6v-1.4ZM368,378.1h5.6v1.4h-5.6v-1.4ZM364.4,379.8h5.6v1.4h-5.6v-1.4ZM368,374.8h5.6v1.4h-5.6v-1.4ZM364.4,376.4h5.6v1.4h-5.6v-1.4ZM368,371.4h5.6v1.4h-5.6v-1.4ZM364.4,373h5.6v1.4h-5.6v-1.4ZM368,368h5.6v1.4h-5.6v-1.4ZM364.4,369.7h5.6v1.4h-5.6v-1.4ZM368,364.6h5.6v1.4h-5.6v-1.4ZM364.4,366.3h5.6v1.4h-5.6v-1.4ZM368,361.3h5.6v1.4h-5.6v-1.4ZM364.2,363.6h5.6v1.4h-5.6v-1.4ZM367.8,358.5h5.6v1.4h-5.6v-1.4ZM364.2,360.2h5.6v1.4h-5.6v-1.4ZM367.8,355.2h5.6v1.4h-5.6v-1.4ZM364.2,356.8h5.6v1.4h-5.6v-1.4ZM367.8,351.8h5.6v1.4h-5.6v-1.4ZM364.2,353.4h5.6v1.4h-5.6v-1.4ZM367.8,348.4h5.6v1.4h-5.6v-1.4ZM364.2,350.1h5.6v1.4h-5.6v-1.4ZM367.8,345h5.6v1.4h-5.6v-1.4ZM364.2,346.7h5.6v1.4h-5.6v-1.4ZM367.8,341.7h5.6v1.4h-5.6v-1.4ZM364.2,343.4h5.6v1.4h-5.6v-1.4ZM367.8,338.3h5.6v1.4h-5.6v-1.4ZM364.2,340h5.6v1.4h-5.6v-1.4ZM367.8,335h5.6v1.4h-5.6v-1.4ZM364.2,336.7h5.6v1.4h-5.6v-1.4ZM367.8,331.6h5.6v1.4h-5.6v-1.4ZM364.2,333.3h5.6v1.4h-5.6v-1.4ZM367.8,328.3h5.6v1.4h-5.6v-1.4ZM364.2,329.9h5.6v1.4h-5.6v-1.4ZM367.8,324.9h5.6v1.4h-5.6v-1.4ZM364.2,326.5h5.6v1.4h-5.6v-1.4ZM367.8,321.5h5.6v1.4h-5.6v-1.4ZM364.2,323.2h5.6v1.4h-5.6v-1.4ZM367.8,318.2h5.6v1.4h-5.6v-1.4ZM364.2,319.8h5.6v1.4h-5.6v-1.4ZM367.8,314.9h5.6v1.4h-5.6v-1.4ZM364.2,316.6h5.6v1.4h-5.6v-1.4ZM367.8,311.5h5.6v1.4h-5.6v-1.4ZM364.2,313.2h5.6v1.4h-5.6v-1.4ZM367.8,308.2h5.6v1.4h-5.6v-1.4ZM364.2,309.8h5.6v1.4h-5.6v-1.4ZM367.8,304.8h5.6v1.4h-5.6v-1.4ZM364.2,306.4h5.6v1.4h-5.6v-1.4ZM367.8,301.4h5.6v1.4h-5.6v-1.4ZM364.2,303.1h5.6v1.4h-5.6v-1.4ZM367.8,298h5.6v1.4h-5.6v-1.4ZM364.2,299.7h5.6v1.4h-5.6v-1.4ZM367.8,294.7h5.6v1.4h-5.6v-1.4ZM364.2,296.3h5.6v1.4h-5.6v-1.4ZM367.8,291.3h5.6v1.4h-5.6v-1.4ZM364.2,292.9h5.6v1.4h-5.6v-1.4ZM367.8,287.9h5.6v1.4h-5.6v-1.4ZM364.2,289.6h5.6v1.4h-5.6v-1.4ZM367.8,284.5h5.6v1.4h-5.6v-1.4ZM364.2,286.2h5.6v1.4h-5.6v-1.4ZM367.8,281.2h5.6v1.4h-5.6v-1.4ZM364.2,282.9h5.6v1.4h-5.6v-1.4ZM367.8,277.8h5.6v1.4h-5.6v-1.4ZM364.2,279.5h5.6v1.4h-5.6v-1.4ZM367.8,274.6h5.6v1.4h-5.6v-1.4ZM364.2,276.3h5.6v1.4h-5.6v-1.4ZM367.8,271.2h5.6v1.4h-5.6v-1.4ZM364.2,272.9h5.6v1.4h-5.6v-1.4ZM367.8,267.9h5.6v1.4h-5.6v-1.4ZM364.2,269.6h5.6v1.4h-5.6v-1.4ZM367.8,264.5h5.6v1.4h-5.6v-1.4ZM364.2,266.2h5.6v1.4h-5.6v-1.4ZM367.8,261.2h5.6v1.4h-5.6v-1.4ZM364.2,262.9h5.6v1.4h-5.6v-1.4ZM367.8,257.8h5.6v1.4h-5.6v-1.4ZM364.2,259.5h5.6v1.4h-5.6v-1.4ZM367.8,254.5h5.6v1.4h-5.6v-1.4ZM364.2,256.1h5.6v1.4h-5.6v-1.4ZM367.8,251h5.6v1.4h-5.6v-1.4ZM364.2,252.7h5.6v1.4h-5.6v-1.4ZM367.8,247.8h5.6v1.4h-5.6v-1.4ZM364.2,249.4h5.6v1.4h-5.6v-1.4ZM367.8,244.3h5.6v1.4h-5.6v-1.4ZM364.2,246h5.6v1.4h-5.6v-1.4ZM367.8,241h5.6v1.4h-5.6v-1.4ZM364.2,242.7h5.6v1.4h-5.6v-1.4ZM367.8,237.6h5.6v1.4h-5.6v-1.4ZM364.2,239.3h5.6v1.4h-5.6v-1.4ZM367.8,234.3h5.6v1.4h-5.6v-1.4ZM364.2,236h5.6v1.4h-5.6v-1.4ZM367.8,230.9h5.6v1.3h-5.6v-1.3ZM364.2,232.6h5.6v1.4h-5.6v-1.4ZM367.8,227.6h5.6v1.4h-5.6v-1.4ZM364.2,229.3h5.6v1.4h-5.6v-1.4ZM367.8,224.2h5.6v1.4h-5.6v-1.4ZM364.2,225.9h5.6v1.4h-5.6v-1.4ZM367.8,220.9h5.6v1.4h-5.6v-1.4ZM364.2,222.5h5.6v1.4h-5.6v-1.4ZM367.8,217.5h5.6v1.4h-5.6v-1.4ZM364.2,219.1h5.6v1.4h-5.6v-1.4ZM367.8,214.1h5.6v1.4h-5.6v-1.4ZM364.2,215.8h5.6v1.4h-5.6v-1.4ZM367.8,210.8h5.6v1.4h-5.6v-1.4ZM364.2,212.4h5.6v1.4h-5.6v-1.4ZM367.8,207.4h5.6v1.4h-5.6v-1.4ZM364.2,209.1h5.6v1.4h-5.6v-1.4ZM367.8,204h5.6v1.4h-5.6v-1.4ZM364.2,205.6h5.6v1.4h-5.6v-1.4ZM367.8,200.7h5.6v1.4h-5.6v-1.4ZM364.2,202.3h5.6v1.4h-5.6v-1.4ZM364.2,198.9h5.6v1.4h-5.6v-1.4ZM375.1,201.8l1.1,623.1h-12.9V201.4c-.1,0-.1-4.4-.1-4.4M370.4,198.6c-.2,0-.4.1-.6.2-2.3-.6-4.5-1.1-6.7-1.6v-4.5l7.3,5.9ZM371,199l-1.1-.3c.2,0,.4,0,.6-.2,0,0,.5.4.5.4ZM371.9,198.2l-.9.8-.5-.4c.5-.1,1-.2,1.4-.3ZM369.9,198.7l1.1.3.9-.8c1.1-.3,2.2-.5,3.2-.8h0l1.1,627.5h-12.9V197.1c2.1.6,4.3,1.1,6.6,1.6h0ZM383.1,188.7v6.6c-2.6.7-5.3,1.4-8,2.1-1,.3-2.1.5-3.2.8l11.2-9.5ZM359.6,818.6h7.5v15.6h-7.5v-15.6ZM370.3,818.6h7.5v15.6h-7.5v-15.6ZM368.7,826.6v6.3M362.9,833h11.9M362.9,825.8h11.9v7.2h-11.9v-7.2ZM698,853.2c.4,0,.6-.1.6-.1.7-1.4,1.3-2.8,2-4.2,1.5-3.1,2.2-6.5,2-9.9-.1-1.9.6-4.8,1.5-7.9.2-.6.3-1.2.5-1.9.2-.8.4-1.6.6-2.4.5-2.2.8-4.3.7-6.2-.3-8-.6-15.4-.8-22.4,0-2-.1-4-.2-5.9s-.1-3.9-.2-5.7c-.3-9.4-.5-18.1-.6-26.1,0-1.6,0-3.1,0-4.7-.3-21.7-.1-39.1.4-56.5.4-14.4-2.1-45.9-7.2-108.9-3.2-38.8-7.4-91.1-15.5-160.3-5.4-46.2-7-75.6-10.1-95.6l-8-44.3c-4.2-18.8-9.1-37-11.5-50.1-1.5-6.9-4.2-16.9-9-28.3-5.5-13-19-43.8-49-62.8-5.2-3.3-18.2-10.7-39.8-21.9-.3-.1-.6-.3-.8-.4M588,736.6l2.3-24.3c.3-2.7.6-5.6-.6-8-4-7.7-5.2-20.9-5.2-20.9l-.3-.7,2.7-.5c1.9-14.6,3.6-29.7,5-45.2,2-21.6,3.4-42.4,4.3-62.5.8-8.1,1-19.8-2.9-33-1.9-6.5-4-10.3-5.8-14.4-.2-.4-.4-.8-.5-1.3l-.6-1.4v-.6c.3-10.7,6.1-132.1,6.6-188.2,0-5.2,0-9.8,0-13.6,0-20.3,2-39.1,2.1-58.7,0-3-.3-6.1-.3-9.1,0-7.1.6-14.1,1-21.1.3-7.1,1-21.1,1-21.1.6-12.3,6.2-55.4,6.2-55.4M698.1,853.3c-3.8.8-24.4,5.3-24.7,5.2l-9.4-.3c-.7,0-53.7-13.1-54.5-13.1,0,0-6.5-1.2-7.2-9.1,0,0-7.2-29.5-8.1-46.7M577.1,786.7c-28.1,0-52.6-4.2-80.7-4.2-40.2,0-74.7,4.9-120.6,4.1v3s0,44.6,0,44.6M539,785.3l13-50.5,4.3-16.6c-2.6-3.3-6.6-8.3-11.1-14.6-1.3-1.9-21.7-21.7-41.9-78.2-4.4-12.3-9.7-29.7-13.4-51.5l-15.5-.3-103.6-2.2h-4l-103.6,2.2-15.5.3c-3.7,21.9-9,39.3-13.4,51.5-13.9,39-32.6,65.4-41.9,78.2-4.5,6.3-8.5,11.4-11.1,14.6l4.3,16.6,13,50.5,22.8-2.1,21.3-.8,19.1.4,75.3,3.6h70.8l70.2-3.7,14.9-.3,15.5.3,30.3,2.6h0ZM610.6,845.3c-.7-.2-1.2-.3-1.3-.3,0,0-6.5-1.2-7.2-9.1,0,0-7.2-29.5-8.1-46.7-.4-7.8-2.4-24.3-4.4-40.1l-1.2-17.4M580.6,768.1l-.2,2.5-5.5,63.6h-199.2M588,736.7l-.8,8.4c-.6,5.8-1.9,11.4-4,16.8l-2.5,6.2M183.4,127.3c-21.5,11-34.4,18.5-39.6,21.8-30.1,18.9-43.6,49.8-49,62.8-4.9,11.4-7.5,21.4-9.1,28.3-2.3,13.2-7.3,31.4-11.4,50.1-3.9,16-5.8,30.8-8,44.3-3,20-7.6,49.4-13,95.6-8,69.2-9.4,121.5-12.6,160.3-5.1,63-7.6,94.5-7.2,108.9,1,31.6-2.4,63.4-1.4,121.3.1,6.2,2.3,15,3.2,18,0,.2,0,.4.2.6-1-2.7.5,6.7,1.9,9.7.3.7.7,1.4,1,2.1l1.5,1.9M150.1,736.6l.8,8.4c.5,5.8,1.9,11.4,4,16.8l2.5,6.2M362.4,834.2v-44.6s0-3,0-3c-46,.7-80.4-4.1-120.6-4.1s-54.7,5.1-82.8,5.1l4.2,46.7h199.2,0ZM47.6,896.7c-.9,3.7-3.5,12.1-3.1,23.7.2,5.2.9,9.4,1.5,12.1,0-2.7,24.7-7.7,41.9-8.6,16.2-.9,33.6.7,35.8,3.2l.6-.2c.4-2.8.9-7.1.8-12.2-.2-11.7-3.2-19.9-4.3-23.6-2.3-8.1-2.2-26.5,6.9-46.6-38.4-13.8-82.9,5.9-87.9,8.3,8.4,18.3,9.5,36,7.7,43.8h0ZM157.4,768.1l3,34.8M127.8,844.6l2.7-.3c1.9-1,5-3.2,5.5-8.5,0,0,7.2-29.5,8.1-46.7.5-9.1,3.1-29.9,5.4-47.6l.5-6.8-.3-2.6-2.1-23.4.3-3,2.1-5.1,1.1-3.6,1.2-5,.9-5,.4-2.9.4-1.6-2.7-.5-1.6-12.9-1.9-16.4-3.3-35.7-1.4-20.5-1.1-19.8-.6-9.5v-7.1c0,0,.3-3.3.3-3.3l.5-4.1.7-4.1.8-3.8,2.4-8,2.9-6.9,1.9-4.4.6-1.4v-3.7c-.1,0-.7-14.5-.7-14.5l-.6-13.2M692,932.6h0c-.1,2.8-25.1,2.3-42.5,1.4-17.3-.9-35.7-3.5-35.5-6.3,0-.2,0-.3.3-.5,2.2-2.5,19.6-4.1,35.8-3.2,17.2.9,41.9,5.9,41.9,8.6h0ZM697.9,853.3c-8.2,18.2-9.3,35.7-7.5,43.5.9,3.7,3.5,12.1,3.1,23.7-.2,5.2-.9,9.4-1.5,12.1M614.1,927.1l-.6-.2c-.4-2.8-.9-7.1-.8-12.2.2-11.7,3.2-19.9,4.3-23.6,2.3-8.1,2.2-26.1-6.7-45.9M46,932.6h0c.1,2.8,25.1,2.3,42.5,1.4,17.3-.9,35.7-3.5,35.5-6.3,0-.2,0-.3-.3-.5-2.2-2.5-19.6-4.1-35.8-3.2-17.2.9-41.9,5.9-41.9,8.6h0ZM345.8,147.7h48M331.4,137.3h76.8M513.1,46.4c-1.2-1.4-2.9-3.2-5.3-4.9,0,0-4.5-3-10.5-4-7.2-1.2-57.7-1.1-127.1.8h-1.6M226,46.4h0c1.2-1.5,2.9-3.2,5.3-4.9,0,0,4.5-3,10.5-4,7.2-1.2,58-1.1,127.8.8h.9M371,199.1l.9-.8,11.3-9.5,55.2-46.6c10.9-8,20-14.3,26.1-18.5,19.5-13.3,36.5-30.2,56.6-42.6,2.1-1.3,6.5-3.9,8.7-7.7M513.2,46.4c-1,.3-1.9,1.2-4.9,4.1-3.3,3.2-6.1,6.1-8.3,8.3-.6.6-1.2,1.3-1.9,2h0c-6.2,6.7-15.2,15.9-26.8,26-6.4,5.6-6.8,5.6-26.1,21.1-4.6,3.7-8.6,6.9-12,9.7M433.3,117.5c-14.8,12-19.9,16.3-30.6,24-8.1,5.9-15,10.5-19.5,13.5-.3.2-.6.4-.8.6l-12.4,7.5-1.3.8M544.7,96.9c-5.8,4.5-11.9,9-18.3,13.4-21.5,14.7-42.2,25.6-61.2,33.7M529.7,73.4l9.4,13.5c.8.6,2,1.7,3.2,3.2,2.4,3,2.9,5.6,3.8,7.6,2,4.7,5.1,4.7,8.9,8.9,6.2,6.8,8.2,17.7,5.1,20.4-1.2,1-2.7.3-5.5.3-.8,0-1.7,0-2.8.3-3.9.8-6.4,2.6-8.3,3.8-5.9,3.9-12.7,6.3-19.1,9.6-11,5.5-41.2,19.8-63,28.6-17.5,7.1-43.5,16.7-78.2,25.9-2.6.7-5.3,1.4-8,2.1-1,.3-2.1.5-3.2.8-.5.1-1,.2-1.4.3-.2,0-.4.1-.6.2l-1.1.3M357.1,188l-55.6-45.9c-10.9-8-20-14.3-26.1-18.5-19.5-13.3-36.5-30.2-56.6-42.6-2.1-1.3-6.5-3.9-8.7-7.7-.7-1.3-1.2-2.6-1.2-4.1,0-1.5.3-3.7,5.7-10.5,7-8.8,8.1-12.7,11.5-12.4,1.2,0,1.9.7,5.4,4.2,3.3,3.2,6.1,6.1,8.3,8.3.7.7,1.4,1.5,2.2,2.3,6.2,6.7,15.1,15.7,26.5,25.6,6.4,5.6,6.8,5.6,26.1,21.1,5.1,4.1,9.3,7.5,13,10.4,14.1,11.4,19.2,15.7,29.7,23.3,7.2,5.2,13.4,9.4,17.9,12.4.9.6,1.7,1.2,2.5,1.6l12.4,7.5,1.3.8M195.1,96.8c5.8,4.5,11.9,9,18.3,13.4,21.5,14.7,42.2,25.6,61.2,33.7M210.1,73.2l-9.4,13.5c-.8.6-2,1.7-3.2,3.2-2.4,3-2.9,5.6-3.8,7.6-2,4.7-5.1,4.7-8.9,8.9-6.2,6.8-8.3,17.7-5.1,20.4,1,.8,2,.6,3.7.4h0c1.2-.1,2.6-.2,4.5.2,3.9.8,6.4,2.6,8.3,3.8,5.9,3.9,12.7,6.3,19.1,9.6,3.9,2,10.4,5.1,18.1,8.7,13.6,6.4,31,14.3,44.9,19.9,17.2,7,42.7,16.4,76.6,25.4,2.7.7,5.4,1.4,8.1,2.1,2.2.6,4.5,1.1,6.7,1.6l1.1.3M419.8,366.4l-.9-31.3c-.3-4.3-.9-10.4-2-17.6-1.3-8-2.6-14-4.5-21.7-2.5-10.4-3.2-11.6-7.1-26.7-3.6-14-4.4-17.2-5-20.6-1.9-9.4-3.4-16.9-3.5-27.2-.3-14.8,2.4-25,3-27.2.3-1.2.6-2.3,1-3.4.8-2.5,1.6-4.5,2.2-6.2h-7.3c-.6,1.4-1.2,3-1.9,5-.4,1.4-.9,2.9-1.4,4.5-.6,2.3-3.2,12.4-3,27.2.2,10.3,1.6,17.8,3.5,27.2.7,3.5,1.4,6.6,5.1,20.6,3.9,15.1,4.5,16.3,7,26.7,1.9,7.7,3.2,13.6,4.5,21.7,1.2,7.2,1.7,13.3,2,17.6l.9,31.3M400.8,190.7c2.3-1,3.9-3.3,3.9-5.9s-2.9-6.5-6.5-6.5-6.5,2.9-6.5,6.5.8,3.6,2.1,4.8c1.2,1,2.6,1.7,4.3,1.7s1.8-.2,2.6-.6h0ZM336,190.7c.3,1,.6,2.2,1,3.4.6,2.3,3.2,12.4,3,27.2-.2,10.3-1.6,17.8-3.5,27.2-.7,3.5-1.4,6.6-5,20.6-3.9,15.1-4.5,16.3-7.1,26.7-1.9,7.7-3.2,13.6-4.5,21.7-1.2,7.2-1.7,13.3-2,17.6l-.9,31.3h7.3l.9-31.3c.3-4.3.9-10.4,2.1-17.6,1.3-8,2.6-14,4.5-21.7,2.5-10.4,3.1-11.6,7-26.7,3.7-14,4.4-17.2,5-20.6,1.9-9.4,3.4-16.9,3.6-27.2.3-14.8-2.4-25-3-27.2-.4-1.6-.9-3.2-1.4-4.5-.6-2-1.3-3.7-1.8-5h-7.3c.6,1.6,1.4,3.7,2.2,6.2h0ZM336,190.7c-2.3-1-3.9-3.3-3.9-5.9s2.9-6.5,6.5-6.5,6.5,2.9,6.5,6.5-.9,3.6-2.2,4.8c-1.2,1.1-2.6,1.7-4.3,1.7s-1.8-.2-2.6-.6ZM529.6,73.2c.7-1.3,1.2-2.6,1.2-4.1,0-1.5-.3-3.7-5.7-10.5-7-8.8-8.1-12.7-11.5-12.4-.2,0-.3,0-.5,0M366.9,168.4l-1.7-.5-1.7,4.2-7.9,19.1s0,3.9,6.8,5.8c6.8,1.9,8.7-1.4,8.7-1.4l2.5-21.1v-1.1c.1,0,.5-3,.5-3h-.3c0,0-3.7-1.1-3.7-1.1M366.9,170.5v2.5c0,.2.2.3.4.3h2.6c.2,0,.3-.3.3-.4v-1.4s-.1-2-.1-2l-.3-7.1c0-.2-.1-.3-.3-.3h-2.6c-.2,0-.3.3-.3.4l.2,6.2v2ZM359.3,187.7c.7-2.9,3.6-4.5,6.3-3.8,2.8.8,4.4,3.7,3.7,6.5s-3.6,4.5-6.4,3.8c-2.7-.8-4.4-3.7-3.7-6.5h0ZM370.1,171.4l1.4.4-.8,2.9-1.1,4.2-5-1.4.7-2.7,1.2-4.5h.3M368.2,160.2c1.2,0,1.7-.2,4.3,2.2,1.3,1.2,2.4,2.5,2.4,3.4,0,2-.9,2.9-1.2,4.6M373.6,173.5c0,.5,0,.7,0,.7,0,.2,0,.3-.2.3M370.8,174.8l-5.4.2M363.4,172.2v-.2c0-2.6-1.6-3.4-1.6-5.9,0-.9,1-2.3,2.3-3.5,2.5-2.5,3-2.4,4.2-2.4M355.5,191.4l7.9-19.1c0,1.5,0,2.3,0,2.3,0,.3.2.5.5.5h1.4s-.7,2.6-.7,2.6l5,1.4,1.1-4.2h2.4c.1,0,.2,0,.3-.2l-2.5,21.1s-2,3.3-8.7,1.4c-6.7-1.9-6.8-5.8-6.8-5.8h0ZM365.7,184.1c-2.7-.8-5.6.9-6.3,3.8s.9,5.8,3.7,6.5c2.8.8,5.6-.9,6.4-3.8.7-2.9-.9-5.8-3.7-6.5h0ZM365.1,168.1l-1.7,4.2v-.2c0-2.6-1.6-3.4-1.6-5.9,0-.9,1-2.3,2.3-3.5,2.5-2.5,3-2.4,4.2-2.4,1.2,0,1.7-.2,4.3,2.2,1.3,1.2,2.4,2.5,2.4,3.4,0,2-.9,2.9-1.2,4.6l-3.7-1-.3-7.1c0-.2-.1-.3-.3-.3h-2.6c-.2,0-.3.3-.3.4l.2,6.2-1.7-.5h0ZM363.5,174.6s0-.8,0-2.3l1.7-4.2,1.7.5v2c0,0-.3,0-.3,0l-1.2,4.5h-1.4c-.3,0-.5-.1-.5-.4h0ZM365.4,175l1.2-4.5h.3c0,0,0,2.6,0,2.6,0,.2.1.3.3.3h2.6c.2,0,.3-.3.3-.4v-1.4s1.4.4,1.4.4l-.8,2.9-5.4.2h0ZM366.8,168.6l3.2.9v2c0,0-3.1-.9-3.1-.9v-2ZM370.2,172.9c0,.2-.1.3-.3.3h-2.6c-.2,0-.3,0-.3-.2v-2.5c0,0,3.1.9,3.1.9v1.4s0,0,0,0ZM369.8,162.3l.3,7.1-3.2-.9-.2-6.2c0-.2,0-.3.3-.3h2.6c.2,0,.3,0,.3.3h0ZM373.6,171.8c0,.7,0,1.3,0,1.7v1.1c-.2.1-.3.2-.4.2h-2.4s.8-2.9.8-2.9l-1.4-.4v-2c0,0,3.6,1,3.6,1,0,.4-.1.8,0,1.3h0ZM373.6,173.6c0,.5,0,.7,0,.7,0,.2,0,.3-.2.3v-1.1ZM374,170.6l-.3,3c0-.4,0-1,0-1.7,0-.5,0-1,0-1.3h.3ZM363.1,192.6v4.5c-2.8-.7-5.5-1.4-8.1-2.1v-9l8.1,6.7ZM369.8,162.9l12.4-7.5c.3-.2.6-.4.8-.6v33.8l-11.3,9.5c-.5.1-1,.2-1.4.3l-7.3-6-8.1-6.7v-32.1c.9.6,1.7,1.2,2.5,1.6l12.4,7.5h0Z"/>
</svg>