<?xml version="1.0" encoding="UTF-8"?>
<svg id="Layer_1" xmlns="http://www.w3.org/2000/svg" version="1.1" viewBox="0 0 750.2 950.7">
  <!-- Generator: Adobe Illustrator 29.1.0, SVG Export Plug-In . SVG Version: 2.1.0 Build 142)  -->
  <defs>
    <style>
      .st0, .st1, .st2 {
        fill: none;
        stroke: #000;
        stroke-linecap: round;
        stroke-linejoin: round;
      }

      .st0, .st2 {
        stroke-width: 3.1px;
      }

      .st1 {
        stroke-dasharray: 3.7 2.4;
        stroke-width: 2.3px;
      }

      .st3 {
        fill: #6abd45;
      }

      .st2 {
        isolation: isolate;
        opacity: .3;
      }
    </style>
  </defs>
  <g id="back">
    <g>
      <path class="st3" d="M582.8,788.4h0,0Z"/>
      <path class="st3" d="M579.5,833.5c-4.2,0-8.3,0-12.2-.2l12.2.2Z"/>
      <path class="st3" d="M534.7,831.8l32,1.5c-11.2-.3-21.6-.9-32.2-1.5h.3,0Z"/>
      <path class="st3" d="M163,788.4h.4-.4Z"/>
      <path class="st3" d="M582.8,788.4h0,0ZM163.3,788.4h-.4.4ZM46.6,932.6h0c0,0,0-.2,0-.3-.6-2.8-1.3-6.9-1.4-11.9-.4-11.7,2.2-20.2,3.1-23.9,1.8-7.8.7-25.5-7.6-43.8l.3-.6c-.3,0-.6-.3-.9-.4-3-1-3-4-4-7v-6c-2-5-2-11-2-16-1-59-1-117,3-176,0-9,2-18,3-27,4-61,9-121,16-183,3-31,6-61,9-92,0-3,2-6,2-9,3-31,10-60,17-91,4-16,7-30,14-45,6-12,13-23,21-34,5.9-7.3,12.6-12.9,19.8-17.8,2.1-1.5,4.2-3,6.4-4.4,9.9-6.2,22.3-13.5,30.9-17.6-1.6-4.1.7-13.1,6.1-19,3.9-4.2,6.9-4.2,9-8.9.9-2.1,1.4-4.7,3.8-7.7,1.2-1.5,2.4-2.6,3.2-3.2l9.4-13.6c0-1.5-.9-7.8,4.5-14.7,5.4-6.9,7.4-10.8,9.6-12h0c1-1.1,6.2-4.2,7.9-5.3,0,0,4.5-3.1,10.6-4.1,7.2-1.2,57.9-1.1,127.7.8h.9c70.3-1.9,121.4-2,128.7-.8,6.1,1,10.6,4.1,10.6,4.1,2.3,1.6,4,3.3,5.2,4.8,3.4-.2,4.5,3.6,11.6,12.5,5.4,6.9,4.6,13.1,4.5,14.7l9.4,13.6c.8.7,2,1.7,3.2,3.2,2.4,3,2.9,5.6,3.8,7.7,2.1,4.7,5.1,4.7,9,8.9,6.2,6.8,8.3,17.8,5.1,20.5l.8,1h.3c11,3.5,27.8,8.9,37.8,15.1,30.3,19.1,43.9,50.1,49.4,63.2,4.9,11.5,7.6,21.6,9.1,28.5,2.4,13.3,7.3,31.6,11.6,50.5h0c.5,2.4,4.2,20.8,4.6,23,.2,1.2,3.1,19.7,3.4,21.6h.2c3.1,20.2,7.6,49.8,13.1,96.3,8.1,69.7,9.5,122.4,12.7,161.4,5.1,63.4,7.7,95.2,7.3,109.7-1,31.8-.8,63.9,1.4,122.1.2,5.8-3.5,14.4-3.3,18.5.2,3.5-.5,6.9-2.1,10-.7,1.4-1.4,2.8-2.1,4.1,0,0-.3,0-.6,0h0c-8.3,18.3-9.4,36-7.6,43.8h0c.9,3.8,3.5,12.2,3.1,24-.2,5.2-.9,9.4-1.5,12.2,0-.5-.9-1.1-2.6-1.8h0c1.6.7,2.5,1.3,2.5,1.8h0c0,2.8-25.3,2.3-42.8,1.4-17.4-.9-36-3.5-35.8-6.3,0-.2,0-.3.3-.5h0l-.5-.2c-.4-2.8-.9-7.1-.8-12.3.2-11.8,3.3-20,4.3-23.7,2.3-8.1,2.2-26.3-6.8-46.4-2.4-.9-5.4-1.9-6.3-3.8-9-26-10-53-13-81,0-3-2-6-2-9-.6-5.2-1.3-9.9-1.4-14.8l-.7,7.8c-.6,5.8-1.9,11.5-4.1,16.9l-2.5,6.3-3,35-2.8,31.5-12.2-.2h-.6l-32-1.5h-.3c-10.9-.6-21.9-1.1-34-1.1H243.9c-28.3,0-50.9,2.8-79.2,2.8l-2.3-31.8-1-8.4-2.5-26.4-2.5-6.3c-2.1-5.4-3.5-11.1-4.1-16.9l-.8-8.5-1.6-17.1h-.1c4.1,39.2-3.5,76-12.9,115.5,0,4-1,8-5,10-1.1.3-2.1.5-3.2.8h0c-8.9,20.1-9.1,38.2-6.7,46.4,1,3.7,4.1,12,4.3,23.7,0,5.2-.4,9.5-.8,12.3l-.6.2h0c0,.2.2.4.2.5.2,2.8-18.3,5.4-35.8,6.3-7.6.4-16.8.7-24.6.7s-18-.5-18.1-2.1v.3Z"/>
      <path class="st3" d="M534.4,831.8l-34-1.1c12.1,0,23.1.5,34,1.1Z"/>
    </g>
  </g>
  <path class="st0" d="M147.1,266.7l5.1-16.7,4.8-12.2,3.9-8.1,4.7-8.2,6.6-9.5,4.8-5.7,3.8-5.3,4.5-3.6,7.3-4.9,7.7-4.4,8.4-4,12.8-4.9M518,177.1l4.8,1.6,5.5,2,8.2,3.4,7.5,3.7,7.8,4.5,7.9,5.4,5.1,4.3,5.1,5.2,4.5,5.3,4.6,6.4,3.6,5.8,4.7,8.9,2.9,6.3,5.5,11.9s2.8,6,3.8,9.1c.6,1.8,1.3,5.6,1.3,5.6M368.3,294V36.6M370.1,38.2h-1.9c-69.8-1.9-120.5-2-127.7-.8-6.1,1-10.6,4.1-10.6,4.1-1.6,1.1-6.9,4.2-7.9,5.3M513.8,46.4h0c-1.2-1.5-2.9-3.3-5.3-4.9,0,0-4.5-3.1-10.6-4.1-7.2-1.2-58.4-1.1-128.7.8h-.9M207.9,73.5c0-1.5-.9-7.8,4.5-14.7,5.5-6.9,7.4-10.8,9.6-12M207.9,73.5l-9.4,13.6c-.9.7-2.1,1.7-3.2,3.2-2.4,3-2.9,5.6-3.8,7.7-2.1,4.7-5.1,4.7-9,8.9-6.2,6.9-8.3,17.8-5.1,20.5M177.4,127.6l45.8,53.8c10.9,11.8,20.1,21.5,26.8,28.4,30,31.4,40,40,44.9,44,0,0,9.9,8.5,29.6,22,4.2,2.9,9.2,6.2,16.2,9.2,4.8,2.1,9.3,3.4,13.4,4.6,5.7,1.7,10.6,2.8,14.1,3.6h.1M529.7,73.4c0-1.5.9-7.8-4.5-14.7-7.1-8.9-8.2-12.7-11.6-12.5M529.7,73.4l9.4,13.6c.8.7,2,1.7,3.2,3.2,2.4,3,2.9,5.6,3.8,7.7,2.1,4.7,5.1,4.7,8.9,8.9,6.2,6.9,8.3,17.8,5.1,20.5M368.9,293.2c3.6-.8,8.5-1.9,14.3-3.6,4.1-1.2,8.6-2.5,13.4-4.6,7.1-3,12-6.3,16.2-9.2,19.7-13.5,29.6-22,29.6-22,4.9-4.1,14.9-12.7,44.9-44,6.6-6.9,15.8-16.6,26.8-28.4l45.8-52.3,1-.4,1-.4M669.1,285.7c.4,2.2,4.2,20.9,4.6,23,.2,1.2,3.1,19.7,3.4,21.6M697.6,932.6h0c0,2.8-25.3,2.3-42.8,1.4-17.5-.9-36-3.5-35.8-6.3,0-.2,0-.3.3-.5,2.2-2.5,19.7-4.1,36.1-3.2,17.4.9,42.2,5.9,42.2,8.7h0ZM46.8,932.6h0c0,2.8,25.3,2.3,42.8,1.4,17.5-.9,36-3.5,35.8-6.3,0-.2,0-.3-.3-.5-2.2-2.5-19.7-4.1-36.1-3.2-17.4.9-42.2,5.9-42.2,8.7h0ZM669.2,285.8c-4.2-18.9-9.2-37.2-11.6-50.5-1.5-6.9-4.2-17-9.1-28.5-5.5-13.1-19.1-44.2-49.4-63.2-10.1-6.3-27.1-11.8-38.1-15.1M40.9,852.7c8.3,18.3,9.4,36,7.6,43.8-.9,3.7-3.5,12.2-3.1,23.9.2,5.2.9,9.4,1.5,12.2M125.3,927.1l.6-.2c.4-2.8.9-7.1.8-12.3-.2-11.8-3.3-20-4.3-23.7-2.4-8.1-2.2-26.3,6.7-46.3M696.2,896.4c.9,3.7,3.5,12.2,3.1,23.9-.2,5.2-.9,9.4-1.5,12.2,0-2.7-24.9-7.8-42.2-8.7-16.3-.9-33.8.7-36.1,3.2l-.6-.2c-.4-2.8-.9-7.1-.8-12.3.2-11.8,3.3-20,4.3-23.7,2.4-8.2,2.2-26.7-7-46.9,38.7-13.9,83.5,6,88.5,8.3-8.5,18.4-9.6,36.3-7.7,44.1h0ZM276,782.8c-40.2,1.1-77.2,2.3-113.3,5.6l14-1.2,21.2-1.4,20.9-1,34.4-1.3,35.7-1.1h168l35.7,1.1,34.4,1.3,20.9,1,21.2,1.4,14,1.2c-36.1-3.3-73-4.5-113.3-5.6M677.3,330.4c3.1,20.1,7.6,49.8,13,96.3,8.1,69.7,9.5,122.4,12.7,161.4,5.1,63.5,7.7,95.2,7.3,109.7-1,31.8-.8,63.9,1.4,122.1.2,5.8-3.5,14.4-3.3,18.5.2,3.4-.5,6.9-2.1,9.9-.7,1.4-1.4,2.7-2.1,4.1,0,0-.3,0-.6,0M75.4,285.8c4.2-18.9,9.2-37.2,11.6-50.5,1.5-6.9,4.2-17,9.1-28.5,5.5-13.1,19.1-44.2,49.4-63.2,10.1-6.3,22.7-13.8,31.4-17.8M166.3,131.7l-19.4,11-17,12.9-9.9,10.5-6.9,9.1-11.1,18.8-6.6,14.6-5.7,16.3-8.6,37.3-7.3,31.5-6.3,36.7c-3.1,20.1-4.8,49.8-10.2,96.3-8.1,69.7-12.4,122.4-15.6,161.4-5.1,63.5-7.7,95.2-7.3,109.7,1,31.8.8,63.9-1.4,122.1-.2,5.8,3.5,14.4,3.3,18.5-.2,3.4.5,6.9,2.1,9.9.7,1.4,1.4,2.7,2.1,4.1,0,0,.3,0,.6,0l13.8,3,11.1,2.2h6.9l9.9-2.1,30-7.3,16.4-3.9,4.1-1.6,3-3.2,1.8-6.5,4.7-22.4,3-21.1,1.6-18.1,1.9-16.2,1.4-10.8,1.3-9.6-2.3-24.5v-6.3l2.7-6.5,1.8-7.3,1.5-7.1.2-2.6-2.7-.5-1.8-16.1-2.8-26.5-5.1-72.3v-7.3c-.1,0,.7-8,.7-8l1.3-6.6,2.1-7.2,2.3-6,3.3-7.3.7-1.4-.8-19.1-1.9-46.3-1.8-52.3-2.1-87.8-.6-47.9M600.6,266.5s-1.5,17.3-1.9,26c-.6,11.6-.8,34.7-.8,34.7l-.5,29.5-.9,30.3-1.1,31-1.4,36.7-1.4,32.7-1.1,25.6-.3,8.4,1.7,3.7,3,6.7,1.5,3.9,1.4,4.4,1.1,4.5.9,4.9.7,6.8.2,7.6-.6,9.5-1,18.8-1.4,21-2.3,26.9-2.7,24-1.9,16.2-2.7.5,1.8,10.2,1.4,5.4,1.8,4.9,1,2.4.4,1.8-.2,5.1-2.3,24.5c2.5,18.7,5.5,42.9,6.1,52.9,1,17.4,8.2,47,8.2,47,.7,7.9,7.2,9.2,7.2,9.2,0,0,.5,0,1.3.3M500.6,830.7c28.3,0,50.8,2.7,79.2,2.7l2.7-31.6,3.1-35,2.5-6.3c2.1-5.5,3.5-11.1,4.1-16.9l.8-8.5M149.6,710.7l2.3,24.5.8,8.5c.6,5.8,1.9,11.5,4.1,16.9l2.5,6.3,2.5,26.4,1,8.4,2.3,31.8c28.3,0,50.8-2.7,79.2-2.7h256.5l34.3,1.1,32.2,1.5,12.7.2,2.7-26.2"/>
  <path class="st2" d="M188.9,103.1c5.7,5.3,11.3,10.7,16.9,16.1,5.8,5.2,11.6,10.3,17.7,15.2,6,4.9,12.2,9.6,18.5,14.2,6.3,4.5,12.7,8.9,19.2,13.2-3.4-2-6.7-4-9.9-6.1-3.3-2.1-6.5-4.3-9.7-6.5-6.4-4.5-12.6-9.2-18.7-14.1-6-4.9-11.9-10-17.5-15.4-5.5-5.5-11-11-16.4-16.6h-.1ZM359.4,178.7l9.6,7.8-11.7-4c-2.9-1-5.5-2.3-8.1-3.3-1.3-.5-2.5-.9-3.7-1.2s-2.2-.3-2.7-.2h-.6c-14.2-.5-28.4-3.5-41.8-8.3s-26.2-11.2-38.1-18.5c-12-7.4-23.2-15.8-33.8-24.7-10.6-9-20.6-18.7-29.8-29.2h0c12.6,6.2,24.5,13.1,36.3,20.1s23.4,14,35.1,20.6c11.7,6.6,23.6,12.7,35.7,18.1,12.2,5.4,24.7,9.8,37.7,13.2h-.6c2.4.1,4.1.9,5.6,1.7s2.8,1.7,4.1,2.6c2.5,1.8,4.7,3.7,6.8,5.4M545.8,101.7c-5.1,5.9-10.2,11.7-15.4,17.5-5.4,5.6-11,11-16.7,16.3-5.8,5.2-11.7,10.3-17.8,15.1-3.1,2.4-6.2,4.7-9.3,7-3.1,2.3-6.4,4.5-9.6,6.6,6.3-4.6,12.4-9.3,18.5-14.2,6-4.9,12-9.9,17.7-15.2,5.8-5.2,11.3-10.6,16.8-16.1,5.3-5.7,10.6-11.3,16-17h-.2ZM376.9,178.7c2.1-1.7,4.3-3.6,6.8-5.4,1.3-.9,2.6-1.8,4.1-2.6s3.3-1.5,5.6-1.7h-.6c13-3.3,25.5-7.8,37.7-13.1s24-11.5,35.7-18.1,23.3-13.6,35.1-20.6,23.7-14,36.3-20.1h0c-9.3,10.6-19.2,20.2-29.8,29.2-10.6,9-21.8,17.4-33.8,24.7-12,7.4-24.7,13.8-38.1,18.5s-27.6,7.8-41.8,8.2h-.6c-.6-.1-1.6,0-2.7.2-1.2.3-2.4.7-3.7,1.2-2.6,1-5.1,2.3-8.1,3.3l-11.7,4,9.6-7.8M339.9,739.2c.2,0,.3.6.1.6-4.1,1.2-41.8,9.3-50.4,11.1-8.6,1.7-17.7,3.1-21.9,3.5-.2,0,12.9-4.1,21.4-5.8s46.5-8.9,50.7-9.4h0ZM267.4,754.5c-5.2,1.4-13,3.5-21.5,5.2s-48.7,9.3-52.8,9.8c-.2,0-.3-.6-.1-.6,4.1-1.2,44-9.8,52.5-11.5,8.6-1.7,22.2-3,22-3h-.1ZM66.2,554.4c-4.1-1.7-7.2-3.3-9.3-4.5s-3.1-2-3.1-2c0,0,4.8,1.7,6.5,2.3,2.7,1,5.8,2.1,6.7,2.4,4.6,1.9,9.3,3.6,14,5.1l-.6,1.8c-4.8-1.6-9.6-3.4-14.2-5.3h0v.2ZM94.8,563.9c4.3,1.1,7.7,1.7,10.1,2s3.7.3,3.7.3c0,0-4.9-1.5-6.6-2.1-2.7-.9-5.9-1.8-6.8-2.1-4.8-1.3-9.6-2.7-14.3-4.3l-.6,1.8c4.8,1.6,9.6,3.1,14.5,4.3h0ZM108.4,545.8c4.1,1.7,7,3.5,9,4.8,2,1.4,2.9,2.1,2.9,2.1,0,0-1.2-.5-2.5-1.1-1.4-.6-3-1.2-3.8-1.6-2.6-1-5.7-2.2-6.5-2.5-4.5-1.9-9.2-3.4-13.9-4.6l.5-1.9c4.9,1.2,9.6,2.8,14.3,4.7h0ZM79.3,538.6c-4.4-.5-7.9-.3-10.2,0-2.4.3-3.6.5-3.6.5,0,0,1.3,0,2.7.2,1.5.2,3.1.3,4.1.4,2.8.3,6,.7,6.9.8,4.9.5,9.7,1.4,14.4,2.5l.5-1.9c-4.9-1.2-9.8-2.1-14.8-2.6h0ZM626.6,537.6c-5-2-7.4-4.1-7.4-4.1,0,0,3,.8,4.1,1.1,1.7.5,3.6,1.1,4.1,1.3,2.8,1.1,5.6,2.1,8.5,3.1l-.6,1.8c-2.9-1-5.8-2-8.6-3.1h0ZM644,543.3c5.1,1.4,8.4,1.1,8.4,1.1,0,0-2.9-1.1-3.9-1.5-1.6-.6-3.5-1.3-4.1-1.4-2.9-.8-5.8-1.7-8.6-2.6l-.6,1.8c2.9,1,5.8,1.8,8.8,2.7h0ZM670.9,529.4c3.3,1.9,5.5,3.8,7.1,5.1,1.5,1.4,2.2,2.2,2.2,2.2,0,0-1-.6-2-1.2-1.1-.6-2.4-1.4-3-1.7-2.1-1.2-4.5-2.5-5.2-2.9-3.6-2.1-7.4-3.9-11.3-5.5l.7-1.8c4,1.6,7.9,3.5,11.6,5.7h0ZM647.1,519.7c-3.7-.9-6.6-1.1-8.6-1.2h-3.1s1,.3,2.3.6c1.2.3,2.6.7,3.4.9,2.4.6,5,1.4,5.8,1.6,4.1,1,8.1,2.3,12,3.9l.7-1.8c-4-1.6-8.1-2.9-12.3-3.9h-.2ZM80.2,739.3c0,.4-.5.6-.6.2-.5-1.7-1.9-7.2-3.7-14.5-1.7-7.4-3.9-16.7-5.9-26.3-4-19.2-7.4-39.5-8.4-47-2.3-15-3.5-31-3.9-38.3,0,0,.2,1.3.7,3.7.4,2.4,1,5.7,1.6,9.6,1.4,7.6,2.9,17.2,4.1,24.7,1,7.5,4.1,27.8,7.8,47,1.8,9.6,3.8,18.9,5.3,26.3,1.7,7.4,2.8,12.8,3.2,14.6h-.2ZM57.5,612.8c-.7-4.6-1.4-10.4-2.1-16.9-.7-6.5-1.4-13.7-1.8-21.3-.5-7.5-1.4-29.1-1.4-49.6s.3-20.3.5-28.2c.3-7.9.6-13.7.8-15.5,0-.4.6-.4.6,0,0,1.8,0,7.6-.2,15.5,0,7.9,0,17.9,0,28.1.3,20.5,1.5,42,2,49.5.2,3.8.4,8.1.6,12.4.2,4.3.3,8.7.5,12.6.3,7.8.5,13.2.5,13.4h0ZM619.1,725.6c0,.6-.7.5-.6,0,.5-2.8,2.1-11.4,4.2-23.1,2.1-11.7,4.8-26.4,7.4-41.6,5.2-30.3,10.1-62.2,11.8-74,3.6-23.5,7.4-48.4,9.3-59.7,0,.2-.2,2.1-.5,5.8-.4,3.8-.9,9.1-1.5,15.1-1.4,12.1-3.1,27.3-4.9,39.1-1.7,11.8-6.9,43.6-12.4,73.9-2.7,15.1-5.6,29.8-7.9,41.5-2.4,11.6-4.1,20.2-4.8,23h0ZM239.4,714.5c.2.6-.4.8-.6.2-1-2.5-3.7-10.4-7.5-21.1-3.6-10.7-8.2-24.3-12.7-38.3-9-27.9-17.7-57.5-20.7-68.5-6.2-21.8-11.7-45.2-14.1-55.9,0,.2.6,1.9,1.6,5.3,1,3.4,2.5,8.3,4.1,13.9,3.4,11.2,7.5,25.1,10.6,36,3,10.9,11.5,40.5,20.1,68.6,4.3,14,8.7,27.6,12.2,38.4,3.5,10.7,6.1,18.7,6.9,21.3h0ZM183.6,530c-1.9-6.8-4.2-15.2-6.7-24.7-2.4-9.5-5.1-20.1-7.6-31.2-2.5-11-9.4-42.5-15.1-72.8-2.9-15.1-5.4-29.9-7.4-41.6-1.9-11.7-3.3-20.3-3.6-23,0-.6.5-.7.6,0,.6,2.7,2.1,11.2,4.2,22.9,2.2,11.7,4.9,26.4,8,41.5,6,30.2,13.1,61.6,15.6,72.6,1.2,5.5,2.6,11.8,4,18.2,1.4,6.4,2.7,12.8,3.9,18.5,2.4,11.4,4.1,19.4,4.1,19.6h0ZM398.7,522.3c-.3.4-.8.2-.6-.3,1-2.1,3.9-8.4,8-17,3.9-8.6,9-19.5,13.7-30.9,9.6-22.6,18.7-46.9,21.7-55.9,3.3-8.9,6.4-18.2,9.2-26.3,2.7-8.1,5.1-15.1,6.5-19.4,0-.1-.4,1.6-1.1,4.5-.8,2.9-1.8,7.1-3.1,11.8-2.7,9.4-6.1,21.2-9.4,30.1-3,9-12.3,33.3-22.3,55.8-4.9,11.3-10.2,22.1-14.3,30.7-4.3,8.5-7.5,14.7-8.6,16.8h.3ZM457.6,371.7c1.4-5.7,3.2-12.8,5.3-20.8,1-4,2-8.2,3-12.6s2.2-8.9,3.2-13.5c2.2-9.3,8.2-35.6,12.4-61.1,2.2-12.7,3.9-25.2,5.3-35,1.2-9.9,2.1-17.1,2.4-19.4,0-.5.7-.4.6,0-.2,2.3-.9,9.6-1.8,19.5-1.2,9.9-2.7,22.4-4.8,35.2-3.9,25.6-9.6,52.1-11.9,61.3-1,4.7-2.5,9.9-4,15.2-1.5,5.3-3,10.6-4.5,15.2-1.5,4.7-2.8,8.7-3.8,11.6-.9,2.9-1.6,4.5-1.5,4.4h0ZM148.2,561.9c-2.1-3.1-2.7-5.5-2.7-5.5,0,0,1.7,1.6,2.2,2.1.9.9,1.8,2.1,2.1,2.4l3.7,5.4-1.6,1.1-3.8-5.5h.1ZM156,520.8c-2.2,4.9-4.4,7.4-4.4,7.4,0,0,.8-3.1,1.2-4.1.5-1.7,1.3-3.6,1.5-4.1l3.8-8.4,1.8.8-3.8,8.5h-.1ZM163.6,504c2.2-4.9,2.6-8.2,2.6-8.2,0,0-1.7,2.7-2.3,3.6-.9,1.5-1.9,3.4-2.1,3.8l-3.8,8.4,1.8.8,3.8-8.5h0ZM168.9,487.5c3.1-8.6,3.8-13.9,3.8-13.9,0,0-2.1,4.8-2.8,6.5-1.2,2.7-2.4,5.9-2.7,6.8-1.7,4.8-3.6,9.7-5.5,14.5l1.8.7c1.9-4.8,3.8-9.7,5.5-14.6h-.1ZM158.2,491.4c.2-3.4.4-6.2.7-8,.2-1.9.4-2.9.4-2.9,0,0,.6,4,.7,5.5.2,2.3.2,4.9.2,5.6-.2,4-.6,7.9-1.2,11.9l-1.9-.3c.6-3.9,1-7.8,1.2-11.8h0Z"/>
  <path class="st1" d="M610.5,840c40.5-17.4,91.3,4.5,95.6,8.2M37.9,846.7c3.8.8,28.3,6,28.6,5.9l9.5-.3c.7,0,60.3-15.6,61.1-15.6M161.6,783c7.4-.6,14.9-1.1,22.4-1.6,23-1.5,45.4-2.5,67.4-3.1l32.6-1h176.4l32.6,1c21.9.7,44.4,1.7,67.4,3.1,7.5.5,15.1,1,22.4,1.6"/>
</svg>