<?xml version="1.0" encoding="UTF-8"?>
<svg id="Layer_1" xmlns="http://www.w3.org/2000/svg" version="1.1" viewBox="0 0 2038.2 944.7">
  <!-- Generator: Adobe Illustrator 29.1.0, SVG Export Plug-In . SVG Version: 2.1.0 Build 142)  -->
  <defs>
    <style>
      .st0 {
        stroke-dasharray: 2 2;
      }

      .st0, .st1, .st2 {
        fill: none;
      }

      .st0, .st1, .st2, .st3, .st4 {
        stroke: #fff;
        stroke-miterlimit: 10;
      }

      .st2 {
        stroke-dasharray: 2;
      }

      .st3 {
        display: none;
      }

      .st4 {
        fill: #fff;
      }
    </style>
  </defs>
  <rect class="st3" width="2038.2" height="954.7"/>
  <path id="side" class="st4" d="M1727.5,412.5s104.9,17.7,166.8-.9c0,0,21.6-140.7,29.4-156,0,0,31.4-114.2-65.6-137s-137.1,89.9-140.5,104-9.9,59-1.7,85.5c8.2,26.5,11.7,104.2,11.7,104.2v.2Z"/>
  <g id="Lines">
    <g id="Back-lines">
      <path class="st2" d="M823.1,347.9s41.3,39.3,134.4,70.4"/>
      <path class="st2" d="M820.4,353.3s41.3,39.3,134.5,70.4"/>
      <path class="st1" d="M974.3,393.8s11.2-99.5-72-221"/>
      <polyline class="st2" points="905.4 178.3 948.1 142 1011.1 105 1075.1 80.3"/>
      <path class="st2" d="M1389.5,418.7s56-11.1,135.1-69.2"/>
      <path class="st1" d="M1276.4,79.2c-109.6,44.4-208.5,0-208.5,0"/>
      <path class="st1" d="M1074.3,74.4s.3,0,.9.3"/>
      <path class="st0" d="M1077.2,75.4c16.9,6,107.2,34.7,192.1-.3"/>
      <path class="st1" d="M1270.2,74.8c.3,0,.6-.3.9-.4"/>
      <path class="st1" d="M955.1,858.3s84.5-3.2,139,15,132.1,6.4,132.1,6.4c0,0,115.5-33.7,160.4-15.5"/>
      <path class="st1" d="M954.7,833h1"/>
      <path class="st0" d="M957.6,832.9c15.5-.4,87.6-1.1,136,15.1,54.5,18.2,132.1,6.4,132.1,6.4,0,0,112.4-32.8,158.5-16.2"/>
      <path class="st1" d="M1385.2,838.5c.3,0,.6.2.9.4"/>
      <path class="st1" d="M954.7,824.3h1"/>
      <path class="st0" d="M957.6,824.2c15.5-.4,87.6-1.1,136,15.1,54.5,18.2,132.1,6.4,132.1,6.4,0,0,112.4-32.8,158.5-16.2"/>
      <path class="st1" d="M1385.2,829.8c.3,0,.6.2.9.4"/>
      <path class="st1" d="M1074.3,76.4s.3,0,.9.3"/>
      <path class="st0" d="M1077.1,77.5c16.9,6,107.2,34.7,192.1-.3"/>
      <path class="st1" d="M1270.1,76.8c.3,0,.6-.3.9-.4"/>
      <polyline class="st2" points="1271.5 81.9 1324.7 99.7 1388.8 134.6 1443 176.7"/>
      <path class="st2" d="M1392.4,424.1s56-11.1,135.1-69.1"/>
      <path class="st1" d="M1449.7,177s-68,73.6-74.4,223.3"/>
    </g>
    <g id="Front-lines">
      <path class="st1" d="M200.1,843.4s84.5-3.2,139,15,132,6.4,132,6.4c0,0,115.5-33.7,160.4-15.5"/>
      <path class="st1" d="M201.7,809.4h1"/>
      <path class="st0" d="M204.6,809.3c15.5-.4,87.6-1.1,136,15.1,54.5,18.2,132,6.4,132,6.4,0,0,112.4-32.8,158.5-16.2"/>
      <path class="st1" d="M201.7,818.1h1"/>
      <path class="st0" d="M204.6,818c15.5-.4,87.6-1.1,136,15.1,54.5,18.2,132,6.4,132,6.4,0,0,112.4-32.8,158.5-16.2"/>
      <path class="st2" d="M634.5,403.8s56-11.1,135.1-69.2"/>
      <path class="st2" d="M637.4,409.2s56-11.1,135.1-69.1"/>
      <path class="st2" d="M68.1,333s41.3,39.3,134.5,70.4"/>
      <path class="st2" d="M65.4,338.4s41.3,39.3,134.5,70.4"/>
      <path class="st1" d="M219.3,378.8s11.2-99.8-72.4-221.6"/>
      <path class="st1" d="M697.4,163.6s-69.9,72.8-76.4,221"/>
      <path class="st1" d="M330.7,59.8s102,29,178.5,0"/>
      <path class="st1" d="M333.9,71.1s98.2,28.7,171.7-.5"/>
      <path class="st1" d="M315.4,61.6c1.6,16.1,13.5,74.5,100.3,70.8,100.5-4.3,98.9-43.8,108-68.4"/>
      <path class="st1" d="M329.3,50.8c2.7,26.5,19.3,50.9,44.5,59.9,30.3,11.4,64.4,5.7,94.7-1.9,24.6-7.6,37.9-28.4,42.1-53.5"/>
    </g>
    <g id="side-lines">
      <path class="st1" d="M1790.4,125.9c-3-17.4-6.1-34.8-10.5-51.8"/>
      <path class="st1" d="M1782.2,883.5c0-154.9,0-309.2,1.9-464.8"/>
      <path class="st2" d="M1727.2,376.1c11.5,2.6,23.2,4,34.8,5.1,25.3,2.3,50.8,2.4,76.1,1,19.8-1.1,39.4-3.2,59-6"/>
      <path class="st2" d="M1726.3,384.7c11,2.5,22.3,3.9,33.5,5,25.5,2.5,51.2,2.7,76.7,1.3,20.2-1.1,40.4-3.2,60.4-6.1"/>
      <path class="st1" d="M1651.3,142.8s113.2-98.4,217.4-70.6"/>
      <path class="st2" d="M1586.3,836s186.8,39.6,323.2,7.5"/>
      <path class="st2" d="M1586.4,828.7s186.8,39.6,323.2,7.5"/>
    </g>
  </g>
</svg>