<?xml version="1.0" encoding="UTF-8"?>
<svg id="Layer_1" xmlns="http://www.w3.org/2000/svg" version="1.1" viewBox="0 0 2038.2 944.7">
  <!-- Generator: Adobe Illustrator 29.1.0, SVG Export Plug-In . SVG Version: 2.1.0 Build 142)  -->
  <defs>
    <style>
      .st0 {
        stroke-dasharray: 2 2;
      }

      .st0, .st1, .st2 {
        fill: none;
      }

      .st0, .st1, .st2, .st3, .st4 {
        stroke: #fff;
        stroke-miterlimit: 10;
      }

      .st2 {
        stroke-dasharray: 2;
      }

      .st3 {
        display: none;
      }

      .st4 {
        fill: #fff;
      }
    </style>
  </defs>
  <rect class="st3" width="2038.2" height="954.7"/>
  <path id="back" class="st4" d="M1464.9,201.8s71.4,173.1,76.7,174.1c0,0-100.5,62.6-105.3,59.9,0,0-16.6,8.6-38,4.8l-23-41.7,11.2,466.7s-49.7,31-202.6,20.8-103.7,9.6-231-24.1l21.4-468.9-25.1,45.4-26.2-2.1s-93.6-41.2-116-63.6l22.5-41.2,57.7-140.1,13.9-18.2,40.6-34.8,82.9-45.4,44.4-15,18.2-13.9s70.6,33.7,168.4,0l20.3,13.9s50.8,16,57.7,21.4l63.1,35.3,52.9,41.7s12.5,18.2,15.2,24.7v.3Z"/>
  <path id="front" class="st4" d="M710.4,185.5s71.4,173.1,76.7,174.1c0,0-100.5,62.6-105.3,59.9,0,0-16.6,8.6-38,4.8l-23-41.7,11.2,466.7s-49.7,31-202.6,20.8-103.7,9.6-231-24.1l21.4-468.9-25.1,45.4-26.2-2.1s-93.6-41.2-116-63.6l22.5-41.2,57.7-140.1,13.9-18.2,40.6-34.8,82.9-45.4,44.4-15,18.2-13.9s70.6,33.7,168.4,0l20.3,13.9s50.8,16,57.7,21.4l63.1,35.3,52.9,41.7s12.5,18.2,15.2,24.7v.3Z"/>
  <path id="side-sleeve" class="st4" d="M1583,863.2s221.6,43.3,329.1,4.3c0,0-5.2-126.6-20.8-162.3-15.7-35.6-10-169.7-10-169.7l10.7-126.2,5.7-215.3s-4.3-120.5-44.9-136.2c-40.6-15.7-144-5.7-198.2,76.3-54.2,82-74.7,122.6-71.5,220.3v508.7h0Z"/>
  <g id="Lines">
    <g id="Back-lines">
      <path class="st2" d="M823.1,347.9s41.3,39.3,134.4,70.4"/>
      <path class="st2" d="M820.4,353.3s41.3,39.3,134.5,70.4"/>
      <path class="st1" d="M974.3,393.8s11.2-99.5-72-221"/>
      <polyline class="st2" points="905.4 178.3 948.1 142 1011.1 105 1075.1 80.3"/>
      <path class="st2" d="M1389.5,418.7s56-11.1,135.1-69.2"/>
      <path class="st1" d="M1276.4,79.2c-109.6,44.4-208.5,0-208.5,0"/>
      <path class="st1" d="M1074.3,74.4s.3,0,.9.3"/>
      <path class="st0" d="M1077.2,75.4c16.9,6,107.2,34.7,192.1-.3"/>
      <path class="st1" d="M1270.2,74.8c.3,0,.6-.3.9-.4"/>
      <path class="st1" d="M955.1,858.3s84.5-3.2,139,15,132.1,6.4,132.1,6.4c0,0,115.5-33.7,160.4-15.5"/>
      <path class="st1" d="M954.7,833h1"/>
      <path class="st0" d="M957.6,832.9c15.5-.4,87.6-1.1,136,15.1,54.5,18.2,132.1,6.4,132.1,6.4,0,0,112.4-32.8,158.5-16.2"/>
      <path class="st1" d="M1385.2,838.5c.3,0,.6.2.9.4"/>
      <path class="st1" d="M954.7,824.3h1"/>
      <path class="st0" d="M957.6,824.2c15.5-.4,87.6-1.1,136,15.1,54.5,18.2,132.1,6.4,132.1,6.4,0,0,112.4-32.8,158.5-16.2"/>
      <path class="st1" d="M1385.2,829.8c.3,0,.6.2.9.4"/>
      <path class="st1" d="M1074.3,76.4s.3,0,.9.3"/>
      <path class="st0" d="M1077.1,77.5c16.9,6,107.2,34.7,192.1-.3"/>
      <path class="st1" d="M1270.1,76.8c.3,0,.6-.3.9-.4"/>
      <polyline class="st2" points="1271.5 81.9 1324.7 99.7 1388.8 134.6 1443 176.7"/>
      <path class="st2" d="M1392.4,424.1s56-11.1,135.1-69.1"/>
      <path class="st1" d="M1449.7,177s-68,73.6-74.4,223.3"/>
    </g>
    <g id="Front-lines">
      <path class="st1" d="M200.1,843.4s84.5-3.2,139,15,132,6.4,132,6.4c0,0,115.5-33.7,160.4-15.5"/>
      <path class="st1" d="M201.7,809.4h1"/>
      <path class="st0" d="M204.6,809.3c15.5-.4,87.6-1.1,136,15.1,54.5,18.2,132,6.4,132,6.4,0,0,112.4-32.8,158.5-16.2"/>
      <path class="st1" d="M201.7,818.1h1"/>
      <path class="st0" d="M204.6,818c15.5-.4,87.6-1.1,136,15.1,54.5,18.2,132,6.4,132,6.4,0,0,112.4-32.8,158.5-16.2"/>
      <path class="st2" d="M634.5,403.8s56-11.1,135.1-69.2"/>
      <path class="st2" d="M637.4,409.2s56-11.1,135.1-69.1"/>
      <path class="st2" d="M68.1,333s41.3,39.3,134.5,70.4"/>
      <path class="st2" d="M65.4,338.4s41.3,39.3,134.5,70.4"/>
      <path class="st1" d="M219.3,378.8s11.2-99.8-72.4-221.6"/>
      <path class="st1" d="M697.4,163.6s-69.9,72.8-76.4,221"/>
      <path class="st1" d="M330.7,59.8s102,29,178.5,0"/>
      <path class="st1" d="M333.9,71.1s98.2,28.7,171.7-.5"/>
      <path class="st1" d="M315.4,61.6c1.6,16.1,13.5,74.5,100.3,70.8,100.5-4.3,98.9-43.8,108-68.4"/>
      <path class="st1" d="M329.3,50.8c2.7,26.5,19.3,50.9,44.5,59.9,30.3,11.4,64.4,5.7,94.7-1.9,24.6-7.6,37.9-28.4,42.1-53.5"/>
    </g>
    <g id="side-lines">
      <path class="st1" d="M1790.4,125.9c-3-17.4-6.1-34.8-10.5-51.8"/>
      <path class="st1" d="M1782.2,883.5c0-154.9,0-309.2,1.9-464.8"/>
      <path class="st2" d="M1727.2,376.1c11.5,2.6,23.2,4,34.8,5.1,25.3,2.3,50.8,2.4,76.1,1,19.8-1.1,39.4-3.2,59-6"/>
      <path class="st2" d="M1726.3,384.7c11,2.5,22.3,3.9,33.5,5,25.5,2.5,51.2,2.7,76.7,1.3,20.2-1.1,40.4-3.2,60.4-6.1"/>
      <path class="st1" d="M1651.3,142.8s113.2-98.4,217.4-70.6"/>
      <path class="st2" d="M1586.3,836s186.8,39.6,323.2,7.5"/>
      <path class="st2" d="M1586.4,828.7s186.8,39.6,323.2,7.5"/>
    </g>
  </g>
</svg>